  0
SECTION
  2
HEADER
  9
$ACADVER
  1
AC1014
  9
$HANDSEED
  5
FFFF
  9
$MEASUREMENT
 70
     1
  0
ENDSEC
  0
SECTION
  2
TABLES
  0
TABLE
  2
VPORT
  5
8
330
0
100
AcDbSymbolTable
 70
     4
  0
VPORT
  5
2E
330
8
100
AcDbSymbolTableRecord
100
AcDbViewportTableRecord
  2
*ACTIVE
 70
     0
 10
0.0
 20
0.0
 11
1.0
 21
1.0
 12
210.0
 22
148.5
 13
0.0
 23
0.0
 14
10.0
 24
10.0
 15
10.0
 25
10.0
 16
0.0
 26
0.0
 36
1.0
 17
0.0
 27
0.0
 37
0.0
 40
341.0
 41
1.24
 42
50.0
 43
0.0
 44
0.0
 50
0.0
 51
0.0
 71
     0
 72
   100
 73
     1
 74
     3
 75
     0
 76
     0
 77
     0
 78
     0
  0
ENDTAB
  0
TABLE
  2
LTYPE
  5
5
330
0
100
AcDbSymbolTable
 70
     1
  0
LTYPE
  5
14
330
5
100
AcDbSymbolTableRecord
100
AcDbLinetypeTableRecord
  2
BYBLOCK
 70
     0
  3

 72
    65
 73
     0
 40
0.0
  0
LTYPE
  5
15
330
5
100
AcDbSymbolTableRecord
100
AcDbLinetypeTableRecord
  2
BYLAYER
 70
     0
  3

 72
    65
 73
     0
 40
0.0
  0
LTYPE
  5
16
330
5
100
AcDbSymbolTableRecord
100
AcDbLinetypeTableRecord
  2
CONTINUOUS
 70
     0
  3
Solid line
 72
    65
 73
     0
 40
0.0
  0
ENDTAB
  0
TABLE
  2
LAYER
  5
2
100
AcDbSymbolTable
 70
2
  0
LAYER
  5
50
100
AcDbSymbolTableRecord
100
AcDbLayerTableRecord
  2
0
 70
0
  6
CONTINUOUS
  0
LAYER
  5
51
100
AcDbSymbolTableRecord
100
AcDbLayerTableRecord
  2
20190719_-_Aalseth_-_Truss
 70
0
  6
CONTINUOUS
  0
ENDTAB
  0
TABLE
  2
STYLE
  5
3
330
0
100
AcDbSymbolTable
 70
     1
  0
STYLE
  5
11
330
3
100
AcDbSymbolTableRecord
100
AcDbTextStyleTableRecord
  2
STANDARD
 70
     0
 40
0.0
 41
1.0
 50
0.0
 71
     0
 42
2.5
  3
txt
  4

  0
ENDTAB
  0
TABLE
  2
VIEW
  5
6
330
0
100
AcDbSymbolTable
 70
     0
  0
ENDTAB
  0
TABLE
  2
UCS
  5
7
330
0
100
AcDbSymbolTable
 70
     0
  0
ENDTAB
  0
TABLE
  2
APPID
  5
9
330
0
100
AcDbSymbolTable
 70
     2
  0
APPID
  5
12
330
9
100
AcDbSymbolTableRecord
100
AcDbRegAppTableRecord
  2
ACAD
 70
     0
  0
ENDTAB
  0
TABLE
  2
DIMSTYLE
  5
A
330
0
100
AcDbSymbolTable
 70
     1
  0
DIMSTYLE
105
27
330
A
100
AcDbSymbolTableRecord
100
AcDbDimStyleTableRecord
  2
ISO-25
 70
     0
  3

  4

  5

  6

  7

 40
1.0
 41
2.5
 42
0.625
 43
3.75
 44
1.25
 45
0.0
 46
0.0
 47
0.0
 48
0.0
140
2.5
141
2.5
142
0.0
143
0.03937007874016
144
1.0
145
0.0
146
1.0
147
0.625
 71
     0
 72
     0
 73
     0
 74
     0
 75
     0
 76
     0
 77
     1
 78
     8
170
     0
171
     3
172
     1
173
     0
174
     0
175
     0
176
     0
177
     0
178
     0
270
     2
271
     2
272
     2
273
     2
274
     3
340
11
275
     0
280
     0
281
     0
282
     0
283
     0
284
     8
285
     0
286
     0
287
     3
288
     0
  0
ENDTAB
  0
TABLE
  2
BLOCK_RECORD
  5
1
330
0
100
AcDbSymbolTable
 70
     1
  0
BLOCK_RECORD
  5
1F
330
1
100
AcDbSymbolTableRecord
100
AcDbBlockTableRecord
  2
*MODEL_SPACE
  0
BLOCK_RECORD
  5
1B
330
1
100
AcDbSymbolTableRecord
100
AcDbBlockTableRecord
  2
*PAPER_SPACE
  0
ENDTAB
  0
ENDSEC
  0
SECTION
  2
BLOCKS
  0
BLOCK
  5
20
330
1F
100
AcDbEntity
  8
0
100
AcDbBlockBegin
  2
*MODEL_SPACE
 70
     0
 10
0.0
 20
0.0
 30
0.0
  3
*MODEL_SPACE
  1

  0
ENDBLK
  5
21
330
1F
100
AcDbEntity
  8
0
100
AcDbBlockEnd
  0
BLOCK
  5
1C
330
1B
100
AcDbEntity
 67
     1
  8
0
100
AcDbBlockBegin
  2
*PAPER_SPACE
  1

  0
ENDBLK
  5
1D
330
1B
100
AcDbEntity
 67
     1
  8
0
100
AcDbBlockEnd
  0
ENDSEC
  0
SECTION
  2
ENTITIES
  0
LWPOLYLINE
  5
100
100
AcDbEntity
  8
20190719_-_Aalseth_-_Truss
 62
7
100
AcDbPolyline
 90
4
 70
1
 10
107.159997
 20
366.720006
 30
0.0
 10
107.159997
 20
178.800011
 30
0.0
 10
311.279992
 20
178.800011
 30
0.0
 10
311.279992
 20
366.720006
 30
0.0
  0
LWPOLYLINE
  5
101
100
AcDbEntity
  8
20190719_-_Aalseth_-_Truss
 62
7
100
AcDbPolyline
 90
4
 70
1
 10
307.919992
 20
480.000003
 30
0.0
 10
307.919992
 20
371.520006
 30
0.0
 10
420.479989
 20
371.520006
 30
0.0
 10
420.479989
 20
480.000003
 30
0.0
  0
LWPOLYLINE
  5
102
100
AcDbEntity
  8
20190719_-_Aalseth_-_Truss
 62
7
100
AcDbPolyline
 90
4
 70
1
 10
408.359990
 20
467.760004
 30
0.0
 10
408.359990
 20
166.080011
 30
0.0
 10
709.439982
 20
166.080011
 30
0.0
 10
709.439982
 20
467.760004
 30
0.0
  0
LWPOLYLINE
  5
103
100
AcDbEntity
  8
20190719_-_Aalseth_-_Truss
 62
7
100
AcDbPolyline
 90
4
 70
1
 10
107.159997
 20
319.680007
 30
0.0
 10
107.159997
 20
166.080011
 30
0.0
 10
408.359990
 20
166.080011
 30
0.0
 10
408.359990
 20
319.680007
 30
0.0
  0
LWPOLYLINE
  5
104
100
AcDbEntity
  8
20190719_-_Aalseth_-_Truss
 62
7
100
AcDbPolyline
 90
4
 70
1
 10
294.959993
 20
379.560006
 30
0.0
 10
294.959993
 20
166.080011
 30
0.0
 10
697.799983
 20
166.080011
 30
0.0
 10
697.799983
 20
379.560006
 30
0.0
  0
LWPOLYLINE
  5
105
100
AcDbEntity
  8
20190719_-_Aalseth_-_Truss
 62
7
100
AcDbPolyline
 90
4
 70
1
 10
408.239990
 20
371.400006
 30
0.0
 10
408.239990
 20
319.800007
 30
0.0
 10
505.319987
 20
319.800007
 30
0.0
 10
505.319987
 20
371.400006
 30
0.0
  0
LWPOLYLINE
  5
106
100
AcDbEntity
  8
20190719_-_Aalseth_-_Truss
 62
7
100
AcDbPolyline
 90
4
 70
0
 10
107.039997
 20
151.920012
 30
0.0
 10
107.039997
 20
166.200011
 30
0.0
 10
120.119997
 20
166.200011
 30
0.0
 10
120.119997
 20
151.920012
 30
0.0
  0
LWPOLYLINE
  5
107
100
AcDbEntity
  8
20190719_-_Aalseth_-_Truss
 62
7
100
AcDbPolyline
 90
4
 70
0
 10
107.039997
 20
166.200011
 30
0.0
 10
120.119997
 20
162.600011
 30
0.0
 10
107.039997
 20
162.600011
 30
0.0
 10
120.119997
 20
166.200011
 30
0.0
  0
LWPOLYLINE
  5
108
100
AcDbEntity
  8
20190719_-_Aalseth_-_Truss
 62
7
100
AcDbPolyline
 90
4
 70
0
 10
107.039997
 20
162.600011
 30
0.0
 10
120.119997
 20
159.000011
 30
0.0
 10
107.039997
 20
159.000011
 30
0.0
 10
120.119997
 20
162.600011
 30
0.0
  0
LWPOLYLINE
  5
109
100
AcDbEntity
  8
20190719_-_Aalseth_-_Truss
 62
7
100
AcDbPolyline
 90
4
 70
0
 10
696.359983
 20
151.920012
 30
0.0
 10
696.359983
 20
166.200011
 30
0.0
 10
709.439982
 20
166.200011
 30
0.0
 10
709.439982
 20
151.920012
 30
0.0
  0
LWPOLYLINE
  5
10a
100
AcDbEntity
  8
20190719_-_Aalseth_-_Truss
 62
7
100
AcDbPolyline
 90
4
 70
0
 10
696.359983
 20
166.200011
 30
0.0
 10
709.439982
 20
162.600011
 30
0.0
 10
696.359983
 20
162.600011
 30
0.0
 10
709.439982
 20
166.200011
 30
0.0
  0
LWPOLYLINE
  5
10b
100
AcDbEntity
  8
20190719_-_Aalseth_-_Truss
 62
7
100
AcDbPolyline
 90
4
 70
0
 10
696.359983
 20
162.600011
 30
0.0
 10
709.439982
 20
159.000011
 30
0.0
 10
696.359983
 20
159.000011
 30
0.0
 10
709.439982
 20
162.600011
 30
0.0
  0
LWPOLYLINE
  5
10c
100
AcDbEntity
  8
20190719_-_Aalseth_-_Truss
 62
7
100
AcDbPolyline
 90
2
 70
0
 10
307.799992
 20
379.680006
 30
0.0
 10
310.319992
 20
382.200006
 30
0.0
  0
LWPOLYLINE
  5
10d
100
AcDbEntity
  8
20190719_-_Aalseth_-_Truss
 62
7
100
AcDbPolyline
 90
2
 70
0
 10
311.759992
 20
383.640006
 30
0.0
 10
314.279992
 20
386.160006
 30
0.0
  0
LWPOLYLINE
  5
10e
100
AcDbEntity
  8
20190719_-_Aalseth_-_Truss
 62
7
100
AcDbPolyline
 90
2
 70
0
 10
315.599992
 20
387.600006
 30
0.0
 10
318.119992
 20
390.120006
 30
0.0
  0
LWPOLYLINE
  5
10f
100
AcDbEntity
  8
20190719_-_Aalseth_-_Truss
 62
7
100
AcDbPolyline
 90
2
 70
0
 10
319.559992
 20
391.440006
 30
0.0
 10
322.079992
 20
393.960005
 30
0.0
  0
LWPOLYLINE
  5
110
100
AcDbEntity
  8
20190719_-_Aalseth_-_Truss
 62
7
100
AcDbPolyline
 90
2
 70
0
 10
323.519992
 20
395.400005
 30
0.0
 10
326.039992
 20
397.920005
 30
0.0
  0
LWPOLYLINE
  5
111
100
AcDbEntity
  8
20190719_-_Aalseth_-_Truss
 62
7
100
AcDbPolyline
 90
2
 70
0
 10
327.359992
 20
399.240005
 30
0.0
 10
329.879992
 20
401.760005
 30
0.0
  0
LWPOLYLINE
  5
112
100
AcDbEntity
  8
20190719_-_Aalseth_-_Truss
 62
7
100
AcDbPolyline
 90
2
 70
0
 10
331.319992
 20
403.200005
 30
0.0
 10
333.839992
 20
405.720005
 30
0.0
  0
LWPOLYLINE
  5
113
100
AcDbEntity
  8
20190719_-_Aalseth_-_Truss
 62
7
100
AcDbPolyline
 90
2
 70
0
 10
335.279992
 20
407.160005
 30
0.0
 10
337.799992
 20
409.680005
 30
0.0
  0
LWPOLYLINE
  5
114
100
AcDbEntity
  8
20190719_-_Aalseth_-_Truss
 62
7
100
AcDbPolyline
 90
2
 70
0
 10
339.119992
 20
411.000005
 30
0.0
 10
341.639991
 20
413.520005
 30
0.0
  0
LWPOLYLINE
  5
115
100
AcDbEntity
  8
20190719_-_Aalseth_-_Truss
 62
7
100
AcDbPolyline
 90
2
 70
0
 10
343.079991
 20
414.960005
 30
0.0
 10
345.599991
 20
417.480005
 30
0.0
  0
LWPOLYLINE
  5
116
100
AcDbEntity
  8
20190719_-_Aalseth_-_Truss
 62
7
100
AcDbPolyline
 90
2
 70
0
 10
346.919991
 20
418.920005
 30
0.0
 10
349.559991
 20
421.440005
 30
0.0
  0
LWPOLYLINE
  5
117
100
AcDbEntity
  8
20190719_-_Aalseth_-_Truss
 62
7
100
AcDbPolyline
 90
2
 70
0
 10
350.879991
 20
422.760005
 30
0.0
 10
353.399991
 20
425.280005
 30
0.0
  0
LWPOLYLINE
  5
118
100
AcDbEntity
  8
20190719_-_Aalseth_-_Truss
 62
7
100
AcDbPolyline
 90
2
 70
0
 10
354.839991
 20
426.720005
 30
0.0
 10
357.359991
 20
429.240005
 30
0.0
  0
LWPOLYLINE
  5
119
100
AcDbEntity
  8
20190719_-_Aalseth_-_Truss
 62
7
100
AcDbPolyline
 90
2
 70
0
 10
358.679991
 20
430.560005
 30
0.0
 10
361.199991
 20
433.200004
 30
0.0
  0
LWPOLYLINE
  5
11a
100
AcDbEntity
  8
20190719_-_Aalseth_-_Truss
 62
7
100
AcDbPolyline
 90
2
 70
0
 10
362.639991
 20
434.520004
 30
0.0
 10
365.159991
 20
437.040004
 30
0.0
  0
LWPOLYLINE
  5
11b
100
AcDbEntity
  8
20190719_-_Aalseth_-_Truss
 62
7
100
AcDbPolyline
 90
2
 70
0
 10
366.599991
 20
438.480004
 30
0.0
 10
369.119991
 20
441.000004
 30
0.0
  0
LWPOLYLINE
  5
11c
100
AcDbEntity
  8
20190719_-_Aalseth_-_Truss
 62
7
100
AcDbPolyline
 90
2
 70
0
 10
370.439991
 20
442.320004
 30
0.0
 10
372.959991
 20
444.840004
 30
0.0
  0
LWPOLYLINE
  5
11d
100
AcDbEntity
  8
20190719_-_Aalseth_-_Truss
 62
7
100
AcDbPolyline
 90
2
 70
0
 10
374.399991
 20
446.280004
 30
0.0
 10
376.919991
 20
448.800004
 30
0.0
  0
LWPOLYLINE
  5
11e
100
AcDbEntity
  8
20190719_-_Aalseth_-_Truss
 62
7
100
AcDbPolyline
 90
2
 70
0
 10
378.359991
 20
450.240004
 30
0.0
 10
380.879990
 20
452.760004
 30
0.0
  0
LWPOLYLINE
  5
11f
100
AcDbEntity
  8
20190719_-_Aalseth_-_Truss
 62
7
100
AcDbPolyline
 90
2
 70
0
 10
382.199990
 20
454.080004
 30
0.0
 10
384.719990
 20
456.600004
 30
0.0
  0
LWPOLYLINE
  5
120
100
AcDbEntity
  8
20190719_-_Aalseth_-_Truss
 62
7
100
AcDbPolyline
 90
2
 70
0
 10
386.159990
 20
458.040004
 30
0.0
 10
388.679990
 20
460.560004
 30
0.0
  0
LWPOLYLINE
  5
121
100
AcDbEntity
  8
20190719_-_Aalseth_-_Truss
 62
7
100
AcDbPolyline
 90
2
 70
0
 10
389.999990
 20
462.000004
 30
0.0
 10
392.639990
 20
464.520004
 30
0.0
  0
LWPOLYLINE
  5
122
100
AcDbEntity
  8
20190719_-_Aalseth_-_Truss
 62
7
100
AcDbPolyline
 90
2
 70
0
 10
393.959990
 20
465.840004
 30
0.0
 10
396.479990
 20
468.360004
 30
0.0
  0
LWPOLYLINE
  5
123
100
AcDbEntity
  8
20190719_-_Aalseth_-_Truss
 62
7
100
AcDbPolyline
 90
2
 70
0
 10
397.919990
 20
469.800004
 30
0.0
 10
400.439990
 20
472.320003
 30
0.0
  0
LWPOLYLINE
  5
124
100
AcDbEntity
  8
20190719_-_Aalseth_-_Truss
 62
7
100
AcDbPolyline
 90
2
 70
0
 10
401.759990
 20
473.640003
 30
0.0
 10
404.279990
 20
476.160003
 30
0.0
  0
LWPOLYLINE
  5
125
100
AcDbEntity
  8
20190719_-_Aalseth_-_Truss
 62
7
100
AcDbPolyline
 90
2
 70
0
 10
405.719990
 20
477.600003
 30
0.0
 10
408.239990
 20
480.120003
 30
0.0
  0
LWPOLYLINE
  5
126
100
AcDbEntity
  8
20190719_-_Aalseth_-_Truss
 62
7
100
AcDbPolyline
 90
2
 70
0
 10
169.559996
 20
116.400012
 30
0.0
 10
167.039996
 20
118.920012
 30
0.0
  0
LWPOLYLINE
  5
127
100
AcDbEntity
  8
20190719_-_Aalseth_-_Truss
 62
7
100
AcDbPolyline
 90
2
 70
0
 10
165.719996
 20
120.240012
 30
0.0
 10
163.199996
 20
122.760012
 30
0.0
  0
LWPOLYLINE
  5
128
100
AcDbEntity
  8
20190719_-_Aalseth_-_Truss
 62
7
100
AcDbPolyline
 90
2
 70
0
 10
161.879996
 20
124.080012
 30
0.0
 10
159.359996
 20
126.600012
 30
0.0
  0
LWPOLYLINE
  5
129
100
AcDbEntity
  8
20190719_-_Aalseth_-_Truss
 62
7
100
AcDbPolyline
 90
2
 70
0
 10
158.039996
 20
127.920012
 30
0.0
 10
155.519996
 20
130.560012
 30
0.0
  0
LWPOLYLINE
  5
12a
100
AcDbEntity
  8
20190719_-_Aalseth_-_Truss
 62
7
100
AcDbPolyline
 90
2
 70
0
 10
154.199996
 20
131.880012
 30
0.0
 10
151.679996
 20
134.400012
 30
0.0
  0
LWPOLYLINE
  5
12b
100
AcDbEntity
  8
20190719_-_Aalseth_-_Truss
 62
7
100
AcDbPolyline
 90
2
 70
0
 10
150.359996
 20
135.720012
 30
0.0
 10
147.839996
 20
138.240012
 30
0.0
  0
LWPOLYLINE
  5
12c
100
AcDbEntity
  8
20190719_-_Aalseth_-_Truss
 62
7
100
AcDbPolyline
 90
2
 70
0
 10
146.519996
 20
139.560012
 30
0.0
 10
143.879996
 20
142.080012
 30
0.0
  0
LWPOLYLINE
  5
12d
100
AcDbEntity
  8
20190719_-_Aalseth_-_Truss
 62
7
100
AcDbPolyline
 90
2
 70
0
 10
142.559996
 20
143.400012
 30
0.0
 10
140.039996
 20
145.920012
 30
0.0
  0
LWPOLYLINE
  5
12e
100
AcDbEntity
  8
20190719_-_Aalseth_-_Truss
 62
7
100
AcDbPolyline
 90
2
 70
0
 10
138.719997
 20
147.240012
 30
0.0
 10
136.199997
 20
149.760012
 30
0.0
  0
LWPOLYLINE
  5
12f
100
AcDbEntity
  8
20190719_-_Aalseth_-_Truss
 62
7
100
AcDbPolyline
 90
2
 70
0
 10
134.879997
 20
151.080012
 30
0.0
 10
132.359997
 20
153.600011
 30
0.0
  0
LWPOLYLINE
  5
130
100
AcDbEntity
  8
20190719_-_Aalseth_-_Truss
 62
7
100
AcDbPolyline
 90
2
 70
0
 10
131.039997
 20
154.920011
 30
0.0
 10
128.519997
 20
157.440011
 30
0.0
  0
LWPOLYLINE
  5
131
100
AcDbEntity
  8
20190719_-_Aalseth_-_Truss
 62
7
100
AcDbPolyline
 90
2
 70
0
 10
127.199997
 20
158.760011
 30
0.0
 10
124.679997
 20
161.400011
 30
0.0
  0
LWPOLYLINE
  5
132
100
AcDbEntity
  8
20190719_-_Aalseth_-_Truss
 62
7
100
AcDbPolyline
 90
2
 70
0
 10
123.359997
 20
162.720011
 30
0.0
 10
120.839997
 20
165.240011
 30
0.0
  0
LWPOLYLINE
  5
133
100
AcDbEntity
  8
20190719_-_Aalseth_-_Truss
 62
7
100
AcDbPolyline
 90
2
 70
0
 10
119.519997
 20
166.560011
 30
0.0
 10
116.999997
 20
169.080011
 30
0.0
  0
LWPOLYLINE
  5
134
100
AcDbEntity
  8
20190719_-_Aalseth_-_Truss
 62
7
100
AcDbPolyline
 90
2
 70
0
 10
115.679997
 20
170.400011
 30
0.0
 10
113.039997
 20
172.920011
 30
0.0
  0
LWPOLYLINE
  5
135
100
AcDbEntity
  8
20190719_-_Aalseth_-_Truss
 62
7
100
AcDbPolyline
 90
2
 70
0
 10
111.719997
 20
174.240011
 30
0.0
 10
109.199997
 20
176.760011
 30
0.0
  0
LWPOLYLINE
  5
136
100
AcDbEntity
  8
20190719_-_Aalseth_-_Truss
 62
7
100
AcDbPolyline
 90
2
 70
0
 10
107.879997
 20
178.080011
 30
0.0
 10
105.359997
 20
180.600011
 30
0.0
  0
LWPOLYLINE
  5
137
100
AcDbEntity
  8
20190719_-_Aalseth_-_Truss
 62
7
100
AcDbPolyline
 90
2
 70
0
 10
104.039997
 20
181.920011
 30
0.0
 10
101.519997
 20
184.440011
 30
0.0
  0
LWPOLYLINE
  5
138
100
AcDbEntity
  8
20190719_-_Aalseth_-_Truss
 62
7
100
AcDbPolyline
 90
2
 70
0
 10
100.199997
 20
185.760011
 30
0.0
 10
97.679998
 20
188.280011
 30
0.0
  0
LWPOLYLINE
  5
139
100
AcDbEntity
  8
20190719_-_Aalseth_-_Truss
 62
7
100
AcDbPolyline
 90
2
 70
0
 10
96.359998
 20
189.600011
 30
0.0
 10
93.839998
 20
192.240010
 30
0.0
  0
LWPOLYLINE
  5
13a
100
AcDbEntity
  8
20190719_-_Aalseth_-_Truss
 62
7
100
AcDbPolyline
 90
2
 70
0
 10
92.519998
 20
193.560010
 30
0.0
 10
89.999998
 20
196.080010
 30
0.0
  0
LWPOLYLINE
  5
13b
100
AcDbEntity
  8
20190719_-_Aalseth_-_Truss
 62
7
100
AcDbPolyline
 90
2
 70
0
 10
88.679998
 20
197.400010
 30
0.0
 10
86.159998
 20
199.920010
 30
0.0
  0
LWPOLYLINE
  5
13c
100
AcDbEntity
  8
20190719_-_Aalseth_-_Truss
 62
7
100
AcDbPolyline
 90
2
 70
0
 10
84.839998
 20
201.240010
 30
0.0
 10
82.199998
 20
203.760010
 30
0.0
  0
LWPOLYLINE
  5
13d
100
AcDbEntity
  8
20190719_-_Aalseth_-_Truss
 62
7
100
AcDbPolyline
 90
2
 70
0
 10
80.879998
 20
205.080010
 30
0.0
 10
78.359998
 20
207.600010
 30
0.0
  0
LWPOLYLINE
  5
13e
100
AcDbEntity
  8
20190719_-_Aalseth_-_Truss
 62
7
100
AcDbPolyline
 90
2
 70
0
 10
77.039998
 20
208.920010
 30
0.0
 10
74.519998
 20
211.440010
 30
0.0
  0
LWPOLYLINE
  5
13f
100
AcDbEntity
  8
20190719_-_Aalseth_-_Truss
 62
7
100
AcDbPolyline
 90
2
 70
0
 10
73.199998
 20
212.760010
 30
0.0
 10
70.679998
 20
215.280010
 30
0.0
  0
LWPOLYLINE
  5
140
100
AcDbEntity
  8
20190719_-_Aalseth_-_Truss
 62
7
100
AcDbPolyline
 90
2
 70
0
 10
69.359998
 20
216.600010
 30
0.0
 10
66.839998
 20
219.120010
 30
0.0
  0
LWPOLYLINE
  5
141
100
AcDbEntity
  8
20190719_-_Aalseth_-_Truss
 62
7
100
AcDbPolyline
 90
2
 70
0
 10
65.519998
 20
220.440010
 30
0.0
 10
62.999998
 20
223.080010
 30
0.0
  0
LWPOLYLINE
  5
142
100
AcDbEntity
  8
20190719_-_Aalseth_-_Truss
 62
7
100
AcDbPolyline
 90
2
 70
0
 10
61.679998
 20
224.400010
 30
0.0
 10
59.159999
 20
226.920010
 30
0.0
  0
LWPOLYLINE
  5
143
100
AcDbEntity
  8
20190719_-_Aalseth_-_Truss
 62
7
100
AcDbPolyline
 90
2
 70
0
 10
57.839999
 20
228.240010
 30
0.0
 10
55.319999
 20
230.760010
 30
0.0
  0
LWPOLYLINE
  5
144
100
AcDbEntity
  8
20190719_-_Aalseth_-_Truss
 62
7
100
AcDbPolyline
 90
2
 70
0
 10
53.999999
 20
232.080009
 30
0.0
 10
51.359999
 20
234.600009
 30
0.0
  0
LWPOLYLINE
  5
145
100
AcDbEntity
  8
20190719_-_Aalseth_-_Truss
 62
7
100
AcDbPolyline
 90
2
 70
0
 10
50.039999
 20
235.920009
 30
0.0
 10
47.519999
 20
238.440009
 30
0.0
  0
LWPOLYLINE
  5
146
100
AcDbEntity
  8
20190719_-_Aalseth_-_Truss
 62
7
100
AcDbPolyline
 90
2
 70
0
 10
46.199999
 20
239.760009
 30
0.0
 10
43.679999
 20
242.280009
 30
0.0
  0
LWPOLYLINE
  5
147
100
AcDbEntity
  8
20190719_-_Aalseth_-_Truss
 62
7
100
AcDbPolyline
 90
2
 70
0
 10
42.359999
 20
243.600009
 30
0.0
 10
39.839999
 20
246.120009
 30
0.0
  0
LWPOLYLINE
  5
148
100
AcDbEntity
  8
20190719_-_Aalseth_-_Truss
 62
7
100
AcDbPolyline
 90
2
 70
0
 10
38.519999
 20
247.440009
 30
0.0
 10
35.999999
 20
249.960009
 30
0.0
  0
LWPOLYLINE
  5
149
100
AcDbEntity
  8
20190719_-_Aalseth_-_Truss
 62
7
100
AcDbPolyline
 90
2
 70
0
 10
275.279993
 20
376.680006
 30
0.0
 10
278.399993
 20
375.120006
 30
0.0
  0
LWPOLYLINE
  5
14a
100
AcDbEntity
  8
20190719_-_Aalseth_-_Truss
 62
7
100
AcDbPolyline
 90
2
 70
0
 10
280.079993
 20
374.280006
 30
0.0
 10
283.199993
 20
372.720006
 30
0.0
  0
LWPOLYLINE
  5
14b
100
AcDbEntity
  8
20190719_-_Aalseth_-_Truss
 62
7
100
AcDbPolyline
 90
2
 70
0
 10
284.879993
 20
371.880006
 30
0.0
 10
288.119993
 20
370.320006
 30
0.0
  0
LWPOLYLINE
  5
14c
100
AcDbEntity
  8
20190719_-_Aalseth_-_Truss
 62
7
100
AcDbPolyline
 90
2
 70
0
 10
289.679993
 20
369.480006
 30
0.0
 10
292.919993
 20
367.920006
 30
0.0
  0
LWPOLYLINE
  5
14d
100
AcDbEntity
  8
20190719_-_Aalseth_-_Truss
 62
7
100
AcDbPolyline
 90
2
 70
0
 10
294.479993
 20
367.080006
 30
0.0
 10
297.719993
 20
365.400006
 30
0.0
  0
LWPOLYLINE
  5
14e
100
AcDbEntity
  8
20190719_-_Aalseth_-_Truss
 62
7
100
AcDbPolyline
 90
2
 70
0
 10
299.399993
 20
364.680006
 30
0.0
 10
302.519992
 20
363.000006
 30
0.0
  0
LWPOLYLINE
  5
14f
100
AcDbEntity
  8
20190719_-_Aalseth_-_Truss
 62
7
100
AcDbPolyline
 90
2
 70
0
 10
304.199992
 20
362.280006
 30
0.0
 10
307.319992
 20
360.600006
 30
0.0
  0
LWPOLYLINE
  5
150
100
AcDbEntity
  8
20190719_-_Aalseth_-_Truss
 62
7
100
AcDbPolyline
 90
2
 70
0
 10
308.999992
 20
359.760006
 30
0.0
 10
312.239992
 20
358.200006
 30
0.0
  0
LWPOLYLINE
  5
151
100
AcDbEntity
  8
20190719_-_Aalseth_-_Truss
 62
7
100
AcDbPolyline
 90
2
 70
0
 10
313.799992
 20
357.360006
 30
0.0
 10
317.039992
 20
355.800006
 30
0.0
  0
LWPOLYLINE
  5
152
100
AcDbEntity
  8
20190719_-_Aalseth_-_Truss
 62
7
100
AcDbPolyline
 90
2
 70
0
 10
318.599992
 20
354.960006
 30
0.0
 10
321.839992
 20
353.400006
 30
0.0
  0
LWPOLYLINE
  5
153
100
AcDbEntity
  8
20190719_-_Aalseth_-_Truss
 62
7
100
AcDbPolyline
 90
2
 70
0
 10
323.519992
 20
352.560006
 30
0.0
 10
326.639992
 20
351.000007
 30
0.0
  0
LWPOLYLINE
  5
154
100
AcDbEntity
  8
20190719_-_Aalseth_-_Truss
 62
7
100
AcDbPolyline
 90
2
 70
0
 10
328.319992
 20
350.160007
 30
0.0
 10
331.439992
 20
348.600007
 30
0.0
  0
LWPOLYLINE
  5
155
100
AcDbEntity
  8
20190719_-_Aalseth_-_Truss
 62
7
100
AcDbPolyline
 90
2
 70
0
 10
333.119992
 20
347.760007
 30
0.0
 10
336.359992
 20
346.200007
 30
0.0
  0
LWPOLYLINE
  5
156
100
AcDbEntity
  8
20190719_-_Aalseth_-_Truss
 62
7
100
AcDbPolyline
 90
2
 70
0
 10
337.919992
 20
345.360007
 30
0.0
 10
341.159991
 20
343.800007
 30
0.0
  0
LWPOLYLINE
  5
157
100
AcDbEntity
  8
20190719_-_Aalseth_-_Truss
 62
7
100
AcDbPolyline
 90
2
 70
0
 10
342.719991
 20
342.960007
 30
0.0
 10
345.959991
 20
341.280007
 30
0.0
  0
LWPOLYLINE
  5
158
100
AcDbEntity
  8
20190719_-_Aalseth_-_Truss
 62
7
100
AcDbPolyline
 90
2
 70
0
 10
347.639991
 20
340.560007
 30
0.0
 10
350.759991
 20
338.880007
 30
0.0
  0
LWPOLYLINE
  5
159
100
AcDbEntity
  8
20190719_-_Aalseth_-_Truss
 62
7
100
AcDbPolyline
 90
2
 70
0
 10
352.439991
 20
338.160007
 30
0.0
 10
355.559991
 20
336.480007
 30
0.0
  0
LWPOLYLINE
  5
15a
100
AcDbEntity
  8
20190719_-_Aalseth_-_Truss
 62
7
100
AcDbPolyline
 90
2
 70
0
 10
357.239991
 20
335.640007
 30
0.0
 10
360.479991
 20
334.080007
 30
0.0
  0
LWPOLYLINE
  5
15b
100
AcDbEntity
  8
20190719_-_Aalseth_-_Truss
 62
7
100
AcDbPolyline
 90
2
 70
0
 10
362.039991
 20
333.240007
 30
0.0
 10
365.279991
 20
331.680007
 30
0.0
  0
LWPOLYLINE
  5
15c
100
AcDbEntity
  8
20190719_-_Aalseth_-_Truss
 62
7
100
AcDbPolyline
 90
2
 70
0
 10
366.839991
 20
330.840007
 30
0.0
 10
370.079991
 20
329.280007
 30
0.0
  0
LWPOLYLINE
  5
15d
100
AcDbEntity
  8
20190719_-_Aalseth_-_Truss
 62
7
100
AcDbPolyline
 90
2
 70
0
 10
371.759991
 20
328.440007
 30
0.0
 10
374.879991
 20
326.880007
 30
0.0
  0
LWPOLYLINE
  5
15e
100
AcDbEntity
  8
20190719_-_Aalseth_-_Truss
 62
7
100
AcDbPolyline
 90
2
 70
0
 10
376.559991
 20
326.040007
 30
0.0
 10
379.679991
 20
324.480007
 30
0.0
  0
LWPOLYLINE
  5
15f
100
AcDbEntity
  8
20190719_-_Aalseth_-_Truss
 62
7
100
AcDbPolyline
 90
2
 70
0
 10
381.359990
 20
323.640007
 30
0.0
 10
384.599990
 20
322.080007
 30
0.0
  0
LWPOLYLINE
  5
160
100
AcDbEntity
  8
20190719_-_Aalseth_-_Truss
 62
7
100
AcDbPolyline
 90
2
 70
0
 10
386.159990
 20
321.240007
 30
0.0
 10
389.399990
 20
319.680007
 30
0.0
  0
LWPOLYLINE
  5
161
100
AcDbEntity
  8
20190719_-_Aalseth_-_Truss
 62
7
100
AcDbPolyline
 90
2
 70
0
 10
390.959990
 20
318.840007
 30
0.0
 10
394.199990
 20
317.160007
 30
0.0
  0
LWPOLYLINE
  5
162
100
AcDbEntity
  8
20190719_-_Aalseth_-_Truss
 62
7
100
AcDbPolyline
 90
2
 70
0
 10
395.879990
 20
316.440007
 30
0.0
 10
398.999990
 20
314.760007
 30
0.0
  0
LWPOLYLINE
  5
163
100
AcDbEntity
  8
20190719_-_Aalseth_-_Truss
 62
7
100
AcDbPolyline
 90
2
 70
0
 10
400.679990
 20
314.040007
 30
0.0
 10
403.799990
 20
312.360007
 30
0.0
  0
LWPOLYLINE
  5
164
100
AcDbEntity
  8
20190719_-_Aalseth_-_Truss
 62
7
100
AcDbPolyline
 90
2
 70
0
 10
405.479990
 20
311.520008
 30
0.0
 10
408.719990
 20
309.960008
 30
0.0
  0
LWPOLYLINE
  5
165
100
AcDbEntity
  8
20190719_-_Aalseth_-_Truss
 62
7
100
AcDbPolyline
 90
2
 70
0
 10
410.279990
 20
309.120008
 30
0.0
 10
413.519990
 20
307.560008
 30
0.0
  0
LWPOLYLINE
  5
166
100
AcDbEntity
  8
20190719_-_Aalseth_-_Truss
 62
7
100
AcDbPolyline
 90
2
 70
0
 10
415.079990
 20
306.720008
 30
0.0
 10
418.319990
 20
305.160008
 30
0.0
  0
LWPOLYLINE
  5
167
100
AcDbEntity
  8
20190719_-_Aalseth_-_Truss
 62
7
100
AcDbPolyline
 90
2
 70
0
 10
419.999989
 20
304.320008
 30
0.0
 10
423.119989
 20
302.760008
 30
0.0
  0
LWPOLYLINE
  5
168
100
AcDbEntity
  8
20190719_-_Aalseth_-_Truss
 62
7
100
AcDbPolyline
 90
2
 70
0
 10
424.799989
 20
301.920008
 30
0.0
 10
427.919989
 20
300.360008
 30
0.0
  0
LWPOLYLINE
  5
169
100
AcDbEntity
  8
20190719_-_Aalseth_-_Truss
 62
7
100
AcDbPolyline
 90
2
 70
0
 10
429.599989
 20
299.520008
 30
0.0
 10
432.839989
 20
297.960008
 30
0.0
  0
LWPOLYLINE
  5
16a
100
AcDbEntity
  8
20190719_-_Aalseth_-_Truss
 62
7
100
AcDbPolyline
 90
2
 70
0
 10
434.399989
 20
297.120008
 30
0.0
 10
437.639989
 20
295.560008
 30
0.0
  0
LWPOLYLINE
  5
16b
100
AcDbEntity
  8
20190719_-_Aalseth_-_Truss
 62
7
100
AcDbPolyline
 90
2
 70
0
 10
439.199989
 20
294.720008
 30
0.0
 10
442.439989
 20
293.040008
 30
0.0
  0
LWPOLYLINE
  5
16c
100
AcDbEntity
  8
20190719_-_Aalseth_-_Truss
 62
7
100
AcDbPolyline
 90
2
 70
0
 10
444.119989
 20
292.320008
 30
0.0
 10
447.239989
 20
290.640008
 30
0.0
  0
LWPOLYLINE
  5
16d
100
AcDbEntity
  8
20190719_-_Aalseth_-_Truss
 62
7
100
AcDbPolyline
 90
2
 70
0
 10
448.919989
 20
289.920008
 30
0.0
 10
452.039989
 20
288.240008
 30
0.0
  0
LWPOLYLINE
  5
16e
100
AcDbEntity
  8
20190719_-_Aalseth_-_Truss
 62
7
100
AcDbPolyline
 90
2
 70
0
 10
453.719989
 20
287.400008
 30
0.0
 10
456.959989
 20
285.840008
 30
0.0
  0
LWPOLYLINE
  5
16f
100
AcDbEntity
  8
20190719_-_Aalseth_-_Truss
 62
7
100
AcDbPolyline
 90
2
 70
0
 10
458.519989
 20
285.000008
 30
0.0
 10
461.759988
 20
283.440008
 30
0.0
  0
LWPOLYLINE
  5
170
100
AcDbEntity
  8
20190719_-_Aalseth_-_Truss
 62
7
100
AcDbPolyline
 90
2
 70
0
 10
463.319988
 20
282.600008
 30
0.0
 10
466.559988
 20
281.040008
 30
0.0
  0
LWPOLYLINE
  5
171
100
AcDbEntity
  8
20190719_-_Aalseth_-_Truss
 62
7
100
AcDbPolyline
 90
2
 70
0
 10
468.239988
 20
280.200008
 30
0.0
 10
471.359988
 20
278.640008
 30
0.0
  0
LWPOLYLINE
  5
172
100
AcDbEntity
  8
20190719_-_Aalseth_-_Truss
 62
7
100
AcDbPolyline
 90
2
 70
0
 10
473.039988
 20
277.800008
 30
0.0
 10
476.159988
 20
276.240008
 30
0.0
  0
LWPOLYLINE
  5
173
100
AcDbEntity
  8
20190719_-_Aalseth_-_Truss
 62
7
100
AcDbPolyline
 90
2
 70
0
 10
477.839988
 20
275.400008
 30
0.0
 10
481.079988
 20
273.840008
 30
0.0
  0
LWPOLYLINE
  5
174
100
AcDbEntity
  8
20190719_-_Aalseth_-_Truss
 62
7
100
AcDbPolyline
 90
2
 70
0
 10
482.639988
 20
273.000008
 30
0.0
 10
485.879988
 20
271.440009
 30
0.0
  0
LWPOLYLINE
  5
175
100
AcDbEntity
  8
20190719_-_Aalseth_-_Truss
 62
7
100
AcDbPolyline
 90
2
 70
0
 10
487.439988
 20
270.600009
 30
0.0
 10
490.679988
 20
268.920009
 30
0.0
  0
LWPOLYLINE
  5
176
100
AcDbEntity
  8
20190719_-_Aalseth_-_Truss
 62
7
100
AcDbPolyline
 90
2
 70
0
 10
492.359988
 20
268.200009
 30
0.0
 10
495.479988
 20
266.520009
 30
0.0
  0
LWPOLYLINE
  5
177
100
AcDbEntity
  8
20190719_-_Aalseth_-_Truss
 62
7
100
AcDbPolyline
 90
2
 70
0
 10
497.159988
 20
265.800009
 30
0.0
 10
500.279987
 20
264.120009
 30
0.0
  0
LWPOLYLINE
  5
178
100
AcDbEntity
  8
20190719_-_Aalseth_-_Truss
 62
7
100
AcDbPolyline
 90
2
 70
0
 10
501.959987
 20
263.280009
 30
0.0
 10
505.199987
 20
261.720009
 30
0.0
  0
LWPOLYLINE
  5
179
100
AcDbEntity
  8
20190719_-_Aalseth_-_Truss
 62
7
100
AcDbPolyline
 90
2
 70
0
 10
506.759987
 20
260.880009
 30
0.0
 10
509.999987
 20
259.320009
 30
0.0
  0
LWPOLYLINE
  5
17a
100
AcDbEntity
  8
20190719_-_Aalseth_-_Truss
 62
7
100
AcDbPolyline
 90
2
 70
0
 10
511.559987
 20
258.480009
 30
0.0
 10
514.799987
 20
256.920009
 30
0.0
  0
LWPOLYLINE
  5
17b
100
AcDbEntity
  8
20190719_-_Aalseth_-_Truss
 62
7
100
AcDbPolyline
 90
2
 70
0
 10
516.479987
 20
256.080009
 30
0.0
 10
519.599987
 20
254.520009
 30
0.0
  0
LWPOLYLINE
  5
17c
100
AcDbEntity
  8
20190719_-_Aalseth_-_Truss
 62
7
100
AcDbPolyline
 90
2
 70
0
 10
521.279987
 20
253.680009
 30
0.0
 10
524.399987
 20
252.120009
 30
0.0
  0
LWPOLYLINE
  5
17d
100
AcDbEntity
  8
20190719_-_Aalseth_-_Truss
 62
7
100
AcDbPolyline
 90
2
 70
0
 10
526.079987
 20
251.280009
 30
0.0
 10
529.319987
 20
249.720009
 30
0.0
  0
LWPOLYLINE
  5
17e
100
AcDbEntity
  8
20190719_-_Aalseth_-_Truss
 62
7
100
AcDbPolyline
 90
2
 70
0
 10
530.879987
 20
248.880009
 30
0.0
 10
534.119987
 20
247.320009
 30
0.0
  0
LWPOLYLINE
  5
17f
100
AcDbEntity
  8
20190719_-_Aalseth_-_Truss
 62
7
100
AcDbPolyline
 90
2
 70
0
 10
535.679987
 20
246.480009
 30
0.0
 10
538.919987
 20
244.800009
 30
0.0
  0
LWPOLYLINE
  5
180
100
AcDbEntity
  8
20190719_-_Aalseth_-_Truss
 62
7
100
AcDbPolyline
 90
2
 70
0
 10
540.599986
 20
244.080009
 30
0.0
 10
543.719986
 20
242.400009
 30
0.0
  0
LWPOLYLINE
  5
181
100
AcDbEntity
  8
20190719_-_Aalseth_-_Truss
 62
7
100
AcDbPolyline
 90
2
 70
0
 10
545.399986
 20
241.680009
 30
0.0
 10
548.519986
 20
240.000009
 30
0.0
  0
LWPOLYLINE
  5
182
100
AcDbEntity
  8
20190719_-_Aalseth_-_Truss
 62
7
100
AcDbPolyline
 90
2
 70
0
 10
550.199986
 20
239.160009
 30
0.0
 10
553.439986
 20
237.600009
 30
0.0
  0
LWPOLYLINE
  5
183
100
AcDbEntity
  8
20190719_-_Aalseth_-_Truss
 62
7
100
AcDbPolyline
 90
2
 70
0
 10
554.999986
 20
236.760009
 30
0.0
 10
558.239986
 20
235.200009
 30
0.0
  0
LWPOLYLINE
  5
184
100
AcDbEntity
  8
20190719_-_Aalseth_-_Truss
 62
7
100
AcDbPolyline
 90
2
 70
0
 10
559.799986
 20
234.360009
 30
0.0
 10
563.039986
 20
232.800009
 30
0.0
  0
LWPOLYLINE
  5
185
100
AcDbEntity
  8
20190719_-_Aalseth_-_Truss
 62
7
100
AcDbPolyline
 90
2
 70
0
 10
564.719986
 20
231.960010
 30
0.0
 10
567.839986
 20
230.400010
 30
0.0
  0
LWPOLYLINE
  5
186
100
AcDbEntity
  8
20190719_-_Aalseth_-_Truss
 62
7
100
AcDbPolyline
 90
2
 70
0
 10
569.519986
 20
229.560010
 30
0.0
 10
572.639986
 20
228.000010
 30
0.0
  0
LWPOLYLINE
  5
187
100
AcDbEntity
  8
20190719_-_Aalseth_-_Truss
 62
7
100
AcDbPolyline
 90
2
 70
0
 10
574.319986
 20
227.160010
 30
0.0
 10
577.559986
 20
225.600010
 30
0.0
  0
LWPOLYLINE
  5
188
100
AcDbEntity
  8
20190719_-_Aalseth_-_Truss
 62
7
100
AcDbPolyline
 90
2
 70
0
 10
579.119986
 20
224.760010
 30
0.0
 10
582.359985
 20
223.200010
 30
0.0
  0
LWPOLYLINE
  5
189
100
AcDbEntity
  8
20190719_-_Aalseth_-_Truss
 62
7
100
AcDbPolyline
 90
2
 70
0
 10
583.919985
 20
222.360010
 30
0.0
 10
587.159985
 20
220.680010
 30
0.0
  0
LWPOLYLINE
  5
18a
100
AcDbEntity
  8
20190719_-_Aalseth_-_Truss
 62
7
100
AcDbPolyline
 90
2
 70
0
 10
588.839985
 20
219.960010
 30
0.0
 10
591.959985
 20
218.280010
 30
0.0
  0
LWPOLYLINE
  5
18b
100
AcDbEntity
  8
20190719_-_Aalseth_-_Truss
 62
7
100
AcDbPolyline
 90
2
 70
0
 10
593.639985
 20
217.560010
 30
0.0
 10
596.759985
 20
215.880010
 30
0.0
  0
LWPOLYLINE
  5
18c
100
AcDbEntity
  8
20190719_-_Aalseth_-_Truss
 62
7
100
AcDbPolyline
 90
2
 70
0
 10
598.439985
 20
215.040010
 30
0.0
 10
601.679985
 20
213.480010
 30
0.0
  0
LWPOLYLINE
  5
18d
100
AcDbEntity
  8
20190719_-_Aalseth_-_Truss
 62
7
100
AcDbPolyline
 90
2
 70
0
 10
603.239985
 20
212.640010
 30
0.0
 10
606.479985
 20
211.080010
 30
0.0
  0
LWPOLYLINE
  5
18e
100
AcDbEntity
  8
20190719_-_Aalseth_-_Truss
 62
7
100
AcDbPolyline
 90
2
 70
0
 10
608.039985
 20
210.240010
 30
0.0
 10
611.279985
 20
208.680010
 30
0.0
  0
LWPOLYLINE
  5
18f
100
AcDbEntity
  8
20190719_-_Aalseth_-_Truss
 62
7
100
AcDbPolyline
 90
2
 70
0
 10
612.959985
 20
207.840010
 30
0.0
 10
616.079985
 20
206.280010
 30
0.0
  0
LWPOLYLINE
  5
190
100
AcDbEntity
  8
20190719_-_Aalseth_-_Truss
 62
7
100
AcDbPolyline
 90
2
 70
0
 10
617.759985
 20
205.440010
 30
0.0
 10
620.879984
 20
203.880010
 30
0.0
  0
LWPOLYLINE
  5
191
100
AcDbEntity
  8
20190719_-_Aalseth_-_Truss
 62
7
100
AcDbPolyline
 90
2
 70
0
 10
622.559984
 20
203.040010
 30
0.0
 10
625.799984
 20
201.480010
 30
0.0
  0
LWPOLYLINE
  5
192
100
AcDbEntity
  8
20190719_-_Aalseth_-_Truss
 62
7
100
AcDbPolyline
 90
2
 70
0
 10
627.359984
 20
200.640010
 30
0.0
 10
630.599984
 20
199.080010
 30
0.0
  0
LWPOLYLINE
  5
193
100
AcDbEntity
  8
20190719_-_Aalseth_-_Truss
 62
7
100
AcDbPolyline
 90
2
 70
0
 10
632.159984
 20
198.240010
 30
0.0
 10
635.399984
 20
196.560010
 30
0.0
  0
LWPOLYLINE
  5
194
100
AcDbEntity
  8
20190719_-_Aalseth_-_Truss
 62
7
100
AcDbPolyline
 90
2
 70
0
 10
637.079984
 20
195.840010
 30
0.0
 10
640.199984
 20
194.160010
 30
0.0
  0
LWPOLYLINE
  5
195
100
AcDbEntity
  8
20190719_-_Aalseth_-_Truss
 62
7
100
AcDbPolyline
 90
2
 70
0
 10
641.879984
 20
193.440010
 30
0.0
 10
644.999984
 20
191.760011
 30
0.0
  0
LWPOLYLINE
  5
196
100
AcDbEntity
  8
20190719_-_Aalseth_-_Truss
 62
7
100
AcDbPolyline
 90
2
 70
0
 10
646.679984
 20
190.920011
 30
0.0
 10
649.919984
 20
189.360011
 30
0.0
  0
LWPOLYLINE
  5
197
100
AcDbEntity
  8
20190719_-_Aalseth_-_Truss
 62
7
100
AcDbPolyline
 90
2
 70
0
 10
651.479984
 20
188.520011
 30
0.0
 10
654.719984
 20
186.960011
 30
0.0
  0
LWPOLYLINE
  5
198
100
AcDbEntity
  8
20190719_-_Aalseth_-_Truss
 62
7
100
AcDbPolyline
 90
2
 70
0
 10
656.279984
 20
186.120011
 30
0.0
 10
659.519984
 20
184.560011
 30
0.0
  0
LWPOLYLINE
  5
199
100
AcDbEntity
  8
20190719_-_Aalseth_-_Truss
 62
7
100
AcDbPolyline
 90
2
 70
0
 10
661.199983
 20
183.720011
 30
0.0
 10
664.319983
 20
182.160011
 30
0.0
  0
LWPOLYLINE
  5
19a
100
AcDbEntity
  8
20190719_-_Aalseth_-_Truss
 62
7
100
AcDbPolyline
 90
2
 70
0
 10
665.999983
 20
181.320011
 30
0.0
 10
669.119983
 20
179.760011
 30
0.0
  0
LWPOLYLINE
  5
19b
100
AcDbEntity
  8
20190719_-_Aalseth_-_Truss
 62
7
100
AcDbPolyline
 90
2
 70
0
 10
670.799983
 20
178.920011
 30
0.0
 10
674.039983
 20
177.360011
 30
0.0
  0
LWPOLYLINE
  5
19c
100
AcDbEntity
  8
20190719_-_Aalseth_-_Truss
 62
7
100
AcDbPolyline
 90
2
 70
0
 10
675.599983
 20
176.520011
 30
0.0
 10
678.839983
 20
174.960011
 30
0.0
  0
LWPOLYLINE
  5
19d
100
AcDbEntity
  8
20190719_-_Aalseth_-_Truss
 62
7
100
AcDbPolyline
 90
2
 70
0
 10
680.399983
 20
174.120011
 30
0.0
 10
683.639983
 20
172.440011
 30
0.0
  0
LWPOLYLINE
  5
19e
100
AcDbEntity
  8
20190719_-_Aalseth_-_Truss
 62
7
100
AcDbPolyline
 90
2
 70
0
 10
685.319983
 20
171.720011
 30
0.0
 10
688.439983
 20
170.040011
 30
0.0
  0
LWPOLYLINE
  5
19f
100
AcDbEntity
  8
20190719_-_Aalseth_-_Truss
 62
7
100
AcDbPolyline
 90
2
 70
0
 10
690.119983
 20
169.320011
 30
0.0
 10
693.239983
 20
167.640011
 30
0.0
  0
LWPOLYLINE
  5
1a0
100
AcDbEntity
  8
20190719_-_Aalseth_-_Truss
 62
7
100
AcDbPolyline
 90
2
 70
0
 10
694.919983
 20
166.800011
 30
0.0
 10
698.159983
 20
165.240011
 30
0.0
  0
LWPOLYLINE
  5
1a1
100
AcDbEntity
  8
20190719_-_Aalseth_-_Truss
 62
7
100
AcDbPolyline
 90
2
 70
0
 10
699.719983
 20
164.400011
 30
0.0
 10
702.959982
 20
162.840011
 30
0.0
  0
LWPOLYLINE
  5
1a2
100
AcDbEntity
  8
20190719_-_Aalseth_-_Truss
 62
7
100
AcDbPolyline
 90
2
 70
0
 10
704.519982
 20
162.000011
 30
0.0
 10
707.759982
 20
160.440011
 30
0.0
  0
LWPOLYLINE
  5
1a3
100
AcDbEntity
  8
20190719_-_Aalseth_-_Truss
 62
7
100
AcDbPolyline
 90
2
 70
0
 10
709.439982
 20
159.600011
 30
0.0
 10
712.559982
 20
158.040011
 30
0.0
  0
LWPOLYLINE
  5
1a4
100
AcDbEntity
  8
20190719_-_Aalseth_-_Truss
 62
7
100
AcDbPolyline
 90
2
 70
0
 10
714.239982
 20
157.200011
 30
0.0
 10
717.359982
 20
155.640011
 30
0.0
  0
LWPOLYLINE
  5
1a5
100
AcDbEntity
  8
20190719_-_Aalseth_-_Truss
 62
7
100
AcDbPolyline
 90
2
 70
0
 10
719.039982
 20
154.800011
 30
0.0
 10
722.279982
 20
153.240011
 30
0.0
  0
LWPOLYLINE
  5
1a6
100
AcDbEntity
  8
20190719_-_Aalseth_-_Truss
 62
7
100
AcDbPolyline
 90
2
 70
0
 10
723.839982
 20
152.400011
 30
0.0
 10
727.079982
 20
150.840012
 30
0.0
  0
LWPOLYLINE
  5
1a7
100
AcDbEntity
  8
20190719_-_Aalseth_-_Truss
 62
7
100
AcDbPolyline
 90
2
 70
0
 10
728.639982
 20
150.000012
 30
0.0
 10
731.879982
 20
148.320012
 30
0.0
  0
LWPOLYLINE
  5
1a8
100
AcDbEntity
  8
20190719_-_Aalseth_-_Truss
 62
7
100
AcDbPolyline
 90
2
 70
0
 10
733.559982
 20
147.600012
 30
0.0
 10
736.679982
 20
145.920012
 30
0.0
  0
LWPOLYLINE
  5
1a9
100
AcDbEntity
  8
20190719_-_Aalseth_-_Truss
 62
7
100
AcDbPolyline
 90
2
 70
0
 10
738.359982
 20
145.200012
 30
0.0
 10
741.479981
 20
143.520012
 30
0.0
  0
LWPOLYLINE
  5
1aa
100
AcDbEntity
  8
20190719_-_Aalseth_-_Truss
 62
7
100
AcDbPolyline
 90
2
 70
0
 10
743.159981
 20
142.680012
 30
0.0
 10
746.399981
 20
141.120012
 30
0.0
  0
LWPOLYLINE
  5
1ab
100
AcDbEntity
  8
20190719_-_Aalseth_-_Truss
 62
7
100
AcDbPolyline
 90
2
 70
0
 10
747.959981
 20
140.280012
 30
0.0
 10
751.199981
 20
138.720012
 30
0.0
  0
LWPOLYLINE
  5
1ac
100
AcDbEntity
  8
20190719_-_Aalseth_-_Truss
 62
7
100
AcDbPolyline
 90
2
 70
0
 10
752.759981
 20
137.880012
 30
0.0
 10
755.999981
 20
136.320012
 30
0.0
  0
LWPOLYLINE
  5
1ad
100
AcDbEntity
  8
20190719_-_Aalseth_-_Truss
 62
7
100
AcDbPolyline
 90
2
 70
0
 10
317.519992
 20
344.160007
 30
0.0
 10
314.999992
 20
346.680007
 30
0.0
  0
LWPOLYLINE
  5
1ae
100
AcDbEntity
  8
20190719_-_Aalseth_-_Truss
 62
7
100
AcDbPolyline
 90
2
 70
0
 10
313.799992
 20
347.880007
 30
0.0
 10
311.279992
 20
350.400007
 30
0.0
  0
LWPOLYLINE
  5
1af
100
AcDbEntity
  8
20190719_-_Aalseth_-_Truss
 62
7
100
AcDbPolyline
 90
2
 70
0
 10
309.959992
 20
351.720007
 30
0.0
 10
307.439992
 20
354.240006
 30
0.0
  0
LWPOLYLINE
  5
1b0
100
AcDbEntity
  8
20190719_-_Aalseth_-_Truss
 62
7
100
AcDbPolyline
 90
2
 70
0
 10
306.119992
 20
355.440006
 30
0.0
 10
303.599992
 20
358.080006
 30
0.0
  0
LWPOLYLINE
  5
1b1
100
AcDbEntity
  8
20190719_-_Aalseth_-_Truss
 62
7
100
AcDbPolyline
 90
2
 70
0
 10
302.399992
 20
359.280006
 30
0.0
 10
299.879993
 20
361.800006
 30
0.0
  0
LWPOLYLINE
  5
1b2
100
AcDbEntity
  8
20190719_-_Aalseth_-_Truss
 62
7
100
AcDbPolyline
 90
2
 70
0
 10
298.559993
 20
363.120006
 30
0.0
 10
296.039993
 20
365.640006
 30
0.0
  0
LWPOLYLINE
  5
1b3
100
AcDbEntity
  8
20190719_-_Aalseth_-_Truss
 62
7
100
AcDbPolyline
 90
2
 70
0
 10
294.719993
 20
366.840006
 30
0.0
 10
292.199993
 20
369.480006
 30
0.0
  0
LWPOLYLINE
  5
1b4
100
AcDbEntity
  8
20190719_-_Aalseth_-_Truss
 62
7
100
AcDbPolyline
 90
2
 70
0
 10
290.999993
 20
370.680006
 30
0.0
 10
288.479993
 20
373.200006
 30
0.0
  0
LWPOLYLINE
  5
1b5
100
AcDbEntity
  8
20190719_-_Aalseth_-_Truss
 62
7
100
AcDbPolyline
 90
2
 70
0
 10
287.159993
 20
374.520006
 30
0.0
 10
284.639993
 20
377.040006
 30
0.0
  0
LWPOLYLINE
  5
1b6
100
AcDbEntity
  8
20190719_-_Aalseth_-_Truss
 62
7
100
AcDbPolyline
 90
2
 70
0
 10
94.799998
 20
191.280011
 30
0.0
 10
172.319996
 20
268.800009
 30
0.0
  0
LWPOLYLINE
  5
1b7
100
AcDbEntity
  8
20190719_-_Aalseth_-_Truss
 62
7
100
AcDbPolyline
 90
5
 70
0
 10
205.199995
 20
301.560008
 30
0.0
 10
282.719993
 20
379.080006
 30
0.0
 10
279.839993
 20
375.240006
 30
0.0
 10
278.759993
 20
376.320006
 30
0.0
 10
282.719993
 20
379.080006
 30
0.0
  0
LWPOLYLINE
  5
1b8
100
AcDbEntity
  8
20190719_-_Aalseth_-_Truss
 62
7
100
AcDbPolyline
 90
3
 70
1
 10
94.799998
 20
191.280011
 30
0.0
 10
97.559998
 20
195.120010
 30
0.0
 10
98.759998
 20
194.040010
 30
0.0
  0
LWPOLYLINE
  5
1b9
100
AcDbEntity
  8
20190719_-_Aalseth_-_Truss
 62
7
100
AcDbPolyline
 90
2
 70
0
 10
90.839998
 20
195.240010
 30
0.0
 10
98.759998
 20
187.200011
 30
0.0
  0
LWPOLYLINE
  5
1ba
100
AcDbEntity
  8
20190719_-_Aalseth_-_Truss
 62
7
100
AcDbPolyline
 90
2
 70
0
 10
278.759993
 20
383.040006
 30
0.0
 10
286.679993
 20
375.120006
 30
0.0
  0
LWPOLYLINE
  5
1bb
100
AcDbEntity
  8
20190719_-_Aalseth_-_Truss
 62
7
100
AcDbPolyline
 90
2
 70
0
 10
295.559993
 20
392.040005
 30
0.0
 10
326.639992
 20
423.120005
 30
0.0
  0
LWPOLYLINE
  5
1bc
100
AcDbEntity
  8
20190719_-_Aalseth_-_Truss
 62
7
100
AcDbPolyline
 90
5
 70
0
 10
364.799991
 20
461.280004
 30
0.0
 10
395.999990
 20
492.360003
 30
0.0
 10
393.119990
 20
488.520003
 30
0.0
 10
392.039990
 20
489.600003
 30
0.0
 10
395.999990
 20
492.360003
 30
0.0
  0
LWPOLYLINE
  5
1bd
100
AcDbEntity
  8
20190719_-_Aalseth_-_Truss
 62
7
100
AcDbPolyline
 90
3
 70
1
 10
295.559993
 20
392.040005
 30
0.0
 10
298.319993
 20
395.880005
 30
0.0
 10
299.519993
 20
394.800005
 30
0.0
  0
LWPOLYLINE
  5
1be
100
AcDbEntity
  8
20190719_-_Aalseth_-_Truss
 62
7
100
AcDbPolyline
 90
2
 70
0
 10
291.599993
 20
396.000005
 30
0.0
 10
299.519993
 20
387.960006
 30
0.0
  0
LWPOLYLINE
  5
1bf
100
AcDbEntity
  8
20190719_-_Aalseth_-_Truss
 62
7
100
AcDbPolyline
 90
2
 70
0
 10
392.039990
 20
496.440003
 30
0.0
 10
399.959990
 20
488.400003
 30
0.0
  0
LWPOLYLINE
  5
1c0
100
AcDbEntity
  8
20190719_-_Aalseth_-_Truss
 62
7
100
AcDbPolyline
 90
2
 70
0
 10
420.959989
 20
492.840003
 30
0.0
 10
549.839986
 20
363.960006
 30
0.0
  0
LWPOLYLINE
  5
1c1
100
AcDbEntity
  8
20190719_-_Aalseth_-_Truss
 62
7
100
AcDbPolyline
 90
5
 70
0
 10
593.279985
 20
320.520007
 30
0.0
 10
722.159982
 20
191.640011
 30
0.0
 10
718.199982
 20
194.520010
 30
0.0
 10
719.279982
 20
195.600010
 30
0.0
 10
722.159982
 20
191.640011
 30
0.0
  0
LWPOLYLINE
  5
1c2
100
AcDbEntity
  8
20190719_-_Aalseth_-_Truss
 62
7
100
AcDbPolyline
 90
3
 70
1
 10
420.959989
 20
492.840003
 30
0.0
 10
424.919989
 20
490.080003
 30
0.0
 10
423.719989
 20
488.880003
 30
0.0
  0
LWPOLYLINE
  5
1c3
100
AcDbEntity
  8
20190719_-_Aalseth_-_Truss
 62
7
100
AcDbPolyline
 90
2
 70
0
 10
424.919989
 20
496.800003
 30
0.0
 10
416.999990
 20
488.880003
 30
0.0
  0
LWPOLYLINE
  5
1c4
100
AcDbEntity
  8
20190719_-_Aalseth_-_Truss
 62
7
100
AcDbPolyline
 90
2
 70
0
 10
726.119982
 20
195.600010
 30
0.0
 10
718.199982
 20
187.680011
 30
0.0
  0
LWPOLYLINE
  5
1c5
100
AcDbEntity
  8
20190719_-_Aalseth_-_Truss
 62
7
100
AcDbPolyline
 90
2
 70
0
 10
125.399997
 20
155.760011
 30
0.0
 10
248.639994
 20
217.320010
 30
0.0
  0
LWPOLYLINE
  5
1c6
100
AcDbEntity
  8
20190719_-_Aalseth_-_Truss
 62
7
100
AcDbPolyline
 90
5
 70
0
 10
290.159993
 20
238.200009
 30
0.0
 10
413.399990
 20
299.760008
 30
0.0
 10
409.559990
 20
296.880008
 30
0.0
 10
408.839990
 20
298.320008
 30
0.0
 10
413.399990
 20
299.760008
 30
0.0
  0
LWPOLYLINE
  5
1c7
100
AcDbEntity
  8
20190719_-_Aalseth_-_Truss
 62
7
100
AcDbPolyline
 90
3
 70
1
 10
125.399997
 20
155.760011
 30
0.0
 10
129.239997
 20
158.520011
 30
0.0
 10
129.959997
 20
157.200011
 30
0.0
  0
LWPOLYLINE
  5
1c8
100
AcDbEntity
  8
20190719_-_Aalseth_-_Truss
 62
7
100
AcDbPolyline
 90
2
 70
0
 10
122.879997
 20
160.800011
 30
0.0
 10
127.919997
 20
150.720012
 30
0.0
  0
LWPOLYLINE
  5
1c9
100
AcDbEntity
  8
20190719_-_Aalseth_-_Truss
 62
7
100
AcDbPolyline
 90
2
 70
0
 10
410.999990
 20
304.800008
 30
0.0
 10
415.919990
 20
294.720008
 30
0.0
  0
LWPOLYLINE
  5
1ca
100
AcDbEntity
  8
20190719_-_Aalseth_-_Truss
 62
7
100
AcDbPolyline
 90
2
 70
0
 10
284.159993
 20
345.360007
 30
0.0
 10
464.159988
 20
255.360009
 30
0.0
  0
LWPOLYLINE
  5
1cb
100
AcDbEntity
  8
20190719_-_Aalseth_-_Truss
 62
7
100
AcDbPolyline
 90
5
 70
0
 10
505.679987
 20
234.600009
 30
0.0
 10
685.559983
 20
144.720012
 30
0.0
 10
680.999983
 20
146.040012
 30
0.0
 10
681.719983
 20
147.480012
 30
0.0
 10
685.559983
 20
144.720012
 30
0.0
  0
LWPOLYLINE
  5
1cc
100
AcDbEntity
  8
20190719_-_Aalseth_-_Truss
 62
7
100
AcDbPolyline
 90
3
 70
1
 10
284.159993
 20
345.360007
 30
0.0
 10
288.839993
 20
343.920007
 30
0.0
 10
288.119993
 20
342.480007
 30
0.0
  0
LWPOLYLINE
  5
1cd
100
AcDbEntity
  8
20190719_-_Aalseth_-_Truss
 62
7
100
AcDbPolyline
 90
2
 70
0
 10
286.679993
 20
350.400007
 30
0.0
 10
281.759993
 20
340.320007
 30
0.0
  0
LWPOLYLINE
  5
1ce
100
AcDbEntity
  8
20190719_-_Aalseth_-_Truss
 62
7
100
AcDbPolyline
 90
2
 70
0
 10
688.079983
 20
149.760012
 30
0.0
 10
683.039983
 20
139.680012
 30
0.0
  0
LWPOLYLINE
  5
1cf
100
AcDbEntity
  8
20190719_-_Aalseth_-_Truss
 62
7
100
AcDbPolyline
 90
2
 70
0
 10
397.079990
 20
444.480004
 30
0.0
 10
504.239987
 20
337.320007
 30
0.0
  0
LWPOLYLINE
  5
1d0
100
AcDbEntity
  8
20190719_-_Aalseth_-_Truss
 62
7
100
AcDbPolyline
 90
5
 70
0
 10
542.399986
 20
299.280008
 30
0.0
 10
649.559984
 20
192.120010
 30
0.0
 10
645.599984
 20
194.880010
 30
0.0
 10
646.679984
 20
195.960010
 30
0.0
 10
649.559984
 20
192.120010
 30
0.0
  0
LWPOLYLINE
  5
1d1
100
AcDbEntity
  8
20190719_-_Aalseth_-_Truss
 62
7
100
AcDbPolyline
 90
3
 70
1
 10
397.079990
 20
444.480004
 30
0.0
 10
401.039990
 20
441.720004
 30
0.0
 10
399.839990
 20
440.640004
 30
0.0
  0
LWPOLYLINE
  5
1d2
100
AcDbEntity
  8
20190719_-_Aalseth_-_Truss
 62
7
100
AcDbPolyline
 90
2
 70
0
 10
401.039990
 20
448.560004
 30
0.0
 10
393.119990
 20
440.520004
 30
0.0
  0
LWPOLYLINE
  5
1d3
100
AcDbEntity
  8
20190719_-_Aalseth_-_Truss
 62
7
100
AcDbPolyline
 90
2
 70
0
 10
653.519984
 20
196.080010
 30
0.0
 10
645.599984
 20
188.160011
 30
0.0
  0
LWPOLYLINE
  5
1d4
100
AcDbEntity
  8
20190719_-_Aalseth_-_Truss
 62
7
100
AcDbPolyline
 90
2
 70
0
 10
402.359990
 20
341.160007
 30
0.0
 10
426.959989
 20
353.400006
 30
0.0
  0
LWPOLYLINE
  5
1d5
100
AcDbEntity
  8
20190719_-_Aalseth_-_Truss
 62
7
100
AcDbPolyline
 90
5
 70
0
 10
461.879988
 20
370.920006
 30
0.0
 10
486.599988
 20
383.160006
 30
0.0
 10
482.639988
 20
380.400006
 30
0.0
 10
481.919988
 20
381.840006
 30
0.0
 10
486.599988
 20
383.160006
 30
0.0
  0
LWPOLYLINE
  5
1d6
100
AcDbEntity
  8
20190719_-_Aalseth_-_Truss
 62
7
100
AcDbPolyline
 90
3
 70
1
 10
402.359990
 20
341.160007
 30
0.0
 10
406.319990
 20
343.920007
 30
0.0
 10
407.039990
 20
342.600007
 30
0.0
  0
LWPOLYLINE
  5
1d7
100
AcDbEntity
  8
20190719_-_Aalseth_-_Truss
 62
7
100
AcDbPolyline
 90
2
 70
0
 10
399.839990
 20
346.200007
 30
0.0
 10
404.879990
 20
336.120007
 30
0.0
  0
LWPOLYLINE
  5
1d8
100
AcDbEntity
  8
20190719_-_Aalseth_-_Truss
 62
7
100
AcDbPolyline
 90
2
 70
0
 10
484.079988
 20
388.200006
 30
0.0
 10
489.119988
 20
378.240006
 30
0.0
  0
LWPOLYLINE
  5
1d9
100
AcDbEntity
  8
20190719_-_Aalseth_-_Truss
 62
7
100
AcDbPolyline
 90
2
 70
0
 10
100.199997
 20
192.480010
 30
0.0
 10
220.439994
 20
252.600009
 30
0.0
  0
LWPOLYLINE
  5
1da
100
AcDbEntity
  8
20190719_-_Aalseth_-_Truss
 62
7
100
AcDbPolyline
 90
5
 70
0
 10
261.959993
 20
273.360008
 30
0.0
 10
382.199990
 20
333.480007
 30
0.0
 10
378.239991
 20
330.600007
 30
0.0
 10
377.519991
 20
332.040007
 30
0.0
 10
382.199990
 20
333.480007
 30
0.0
  0
LWPOLYLINE
  5
1db
100
AcDbEntity
  8
20190719_-_Aalseth_-_Truss
 62
7
100
AcDbPolyline
 90
3
 70
1
 10
100.199997
 20
192.480010
 30
0.0
 10
104.159997
 20
195.360010
 30
0.0
 10
104.879997
 20
193.920010
 30
0.0
  0
LWPOLYLINE
  5
1dc
100
AcDbEntity
  8
20190719_-_Aalseth_-_Truss
 62
7
100
AcDbPolyline
 90
2
 70
0
 10
97.799998
 20
197.520010
 30
0.0
 10
102.719997
 20
187.440011
 30
0.0
  0
LWPOLYLINE
  5
1dd
100
AcDbEntity
  8
20190719_-_Aalseth_-_Truss
 62
7
100
AcDbPolyline
 90
2
 70
0
 10
379.679991
 20
338.520007
 30
0.0
 10
384.599990
 20
328.440007
 30
0.0
  0
LWPOLYLINE
  5
1de
100
AcDbEntity
  8
20190719_-_Aalseth_-_Truss
 62
7
100
AcDbPolyline
 90
2
 70
0
 10
431.759989
 20
311.280008
 30
0.0
 10
453.239989
 20
321.960007
 30
0.0
  0
LWPOLYLINE
  5
1df
100
AcDbEntity
  8
20190719_-_Aalseth_-_Truss
 62
7
100
AcDbPolyline
 90
5
 70
0
 10
488.159988
 20
339.360007
 30
0.0
 10
509.519987
 20
350.160007
 30
0.0
 10
505.679987
 20
347.280007
 30
0.0
 10
504.959987
 20
348.720007
 30
0.0
 10
509.519987
 20
350.160007
 30
0.0
  0
LWPOLYLINE
  5
1e0
100
AcDbEntity
  8
20190719_-_Aalseth_-_Truss
 62
7
100
AcDbPolyline
 90
3
 70
1
 10
431.759989
 20
311.280008
 30
0.0
 10
435.719989
 20
314.040007
 30
0.0
 10
436.439989
 20
312.600007
 30
0.0
  0
LWPOLYLINE
  5
1e1
100
AcDbEntity
  8
20190719_-_Aalseth_-_Truss
 62
7
100
AcDbPolyline
 90
2
 70
0
 10
429.239989
 20
316.200007
 30
0.0
 10
434.279989
 20
306.240008
 30
0.0
  0
LWPOLYLINE
  5
1e2
100
AcDbEntity
  8
20190719_-_Aalseth_-_Truss
 62
7
100
AcDbPolyline
 90
2
 70
0
 10
506.999987
 20
355.080006
 30
0.0
 10
512.039987
 20
345.120007
 30
0.0
  0
LWPOLYLINE
  5
1e3
100
AcDbEntity
  8
20190719_-_Aalseth_-_Truss
 62
7
100
AcDbPolyline
 90
2
 70
0
 10
331.559992
 20
364.200006
 30
0.0
 10
362.399991
 20
395.040005
 30
0.0
  0
LWPOLYLINE
  5
1e4
100
AcDbEntity
  8
20190719_-_Aalseth_-_Truss
 62
7
100
AcDbPolyline
 90
5
 70
0
 10
384.719990
 20
417.360005
 30
0.0
 10
415.679990
 20
448.320004
 30
0.0
 10
412.799990
 20
444.360004
 30
0.0
 10
411.719990
 20
445.560004
 30
0.0
 10
415.679990
 20
448.320004
 30
0.0
  0
LWPOLYLINE
  5
1e5
100
AcDbEntity
  8
20190719_-_Aalseth_-_Truss
 62
7
100
AcDbPolyline
 90
3
 70
1
 10
331.559992
 20
364.200006
 30
0.0
 10
334.319992
 20
368.040006
 30
0.0
 10
335.399992
 20
366.960006
 30
0.0
  0
LWPOLYLINE
  5
1e6
100
AcDbEntity
  8
20190719_-_Aalseth_-_Truss
 62
7
100
AcDbPolyline
 90
2
 70
0
 10
327.479992
 20
368.160006
 30
0.0
 10
335.519992
 20
360.240006
 30
0.0
  0
LWPOLYLINE
  5
1e7
100
AcDbEntity
  8
20190719_-_Aalseth_-_Truss
 62
7
100
AcDbPolyline
 90
2
 70
0
 10
411.719990
 20
452.280004
 30
0.0
 10
419.639990
 20
444.360004
 30
0.0
  0
LWPOLYLINE
  5
1e8
100
AcDbEntity
  8
20190719_-_Aalseth_-_Truss
 62
7
100
AcDbPolyline
 90
2
 70
0
 10
716.159982
 20
166.200011
 30
0.0
 10
716.159982
 20
169.680011
 30
0.0
  0
LWPOLYLINE
  5
1e9
100
AcDbEntity
  8
20190719_-_Aalseth_-_Truss
 62
7
100
AcDbPolyline
 90
5
 70
0
 10
716.159982
 20
175.440011
 30
0.0
 10
716.159982
 20
178.920011
 30
0.0
 10
716.999982
 20
174.240011
 30
0.0
 10
715.439982
 20
174.240011
 30
0.0
 10
716.159982
 20
178.920011
 30
0.0
  0
LWPOLYLINE
  5
1ea
100
AcDbEntity
  8
20190719_-_Aalseth_-_Truss
 62
7
100
AcDbPolyline
 90
3
 70
1
 10
716.159982
 20
166.200011
 30
0.0
 10
715.439982
 20
170.880011
 30
0.0
 10
716.999982
 20
170.880011
 30
0.0
  0
LWPOLYLINE
  5
1eb
100
AcDbEntity
  8
20190719_-_Aalseth_-_Truss
 62
7
100
AcDbPolyline
 90
2
 70
0
 10
710.639982
 20
166.200011
 30
0.0
 10
721.799982
 20
166.200011
 30
0.0
  0
LWPOLYLINE
  5
1ec
100
AcDbEntity
  8
20190719_-_Aalseth_-_Truss
 62
7
100
AcDbPolyline
 90
2
 70
0
 10
710.639982
 20
178.920011
 30
0.0
 10
721.799982
 20
178.920011
 30
0.0
  0
LWPOLYLINE
  5
1ed
100
AcDbEntity
  8
20190719_-_Aalseth_-_Truss
 62
7
100
AcDbPolyline
 90
2
 70
0
 10
697.799983
 20
137.280012
 30
0.0
 10
700.799982
 20
137.280012
 30
0.0
  0
LWPOLYLINE
  5
1ee
100
AcDbEntity
  8
20190719_-_Aalseth_-_Truss
 62
7
100
AcDbPolyline
 90
2
 70
0
 10
706.439982
 20
137.280012
 30
0.0
 10
709.439982
 20
137.280012
 30
0.0
  0
LWPOLYLINE
  5
1ef
100
AcDbEntity
  8
20190719_-_Aalseth_-_Truss
 62
7
100
AcDbPolyline
 90
2
 70
0
 10
697.799983
 20
142.920012
 30
0.0
 10
697.799983
 20
131.640012
 30
0.0
  0
LWPOLYLINE
  5
1f0
100
AcDbEntity
  8
20190719_-_Aalseth_-_Truss
 62
7
100
AcDbPolyline
 90
2
 70
0
 10
709.439982
 20
142.920012
 30
0.0
 10
709.439982
 20
131.640012
 30
0.0
  0
LWPOLYLINE
  5
1f1
100
AcDbEntity
  8
20190719_-_Aalseth_-_Truss
 62
7
100
AcDbPolyline
 90
2
 70
0
 10
162.839996
 20
196.200010
 30
0.0
 10
226.799994
 20
260.160009
 30
0.0
  0
LWPOLYLINE
  5
1f2
100
AcDbEntity
  8
20190719_-_Aalseth_-_Truss
 62
7
100
AcDbPolyline
 90
5
 70
0
 10
254.399994
 20
287.760008
 30
0.0
 10
318.239992
 20
351.600007
 30
0.0
 10
315.479992
 20
347.760007
 30
0.0
 10
314.399992
 20
348.840007
 30
0.0
 10
318.239992
 20
351.600007
 30
0.0
  0
LWPOLYLINE
  5
1f3
100
AcDbEntity
  8
20190719_-_Aalseth_-_Truss
 62
7
100
AcDbPolyline
 90
3
 70
1
 10
162.839996
 20
196.200010
 30
0.0
 10
165.599996
 20
200.160010
 30
0.0
 10
166.799996
 20
199.080010
 30
0.0
  0
LWPOLYLINE
  5
1f4
100
AcDbEntity
  8
20190719_-_Aalseth_-_Truss
 62
7
100
AcDbPolyline
 90
2
 70
0
 10
158.879996
 20
200.160010
 30
0.0
 10
166.799996
 20
192.240010
 30
0.0
  0
LWPOLYLINE
  5
1f5
100
AcDbEntity
  8
20190719_-_Aalseth_-_Truss
 62
7
100
AcDbPolyline
 90
2
 70
0
 10
314.279992
 20
355.680006
 30
0.0
 10
322.199992
 20
347.640007
 30
0.0
  0
LWPOLYLINE
  5
1f6
100
AcDbEntity
  8
20190719_-_Aalseth_-_Truss
 62
7
100
AcDbPolyline
 90
5
 70
1
 10
155.759996
 20
203.280010
 30
0.0
 10
107.039997
 20
178.920011
 30
0.0
 10
107.039997
 20
178.920011
 30
0.0
 10
294.959993
 20
366.840006
 30
0.0
 10
311.279992
 20
358.680006
 30
0.0
  0
LWPOLYLINE
  5
1f7
100
AcDbEntity
  8
20190719_-_Aalseth_-_Truss
 62
7
100
AcDbPolyline
 90
4
 70
1
 10
324.119992
 20
371.520006
 30
0.0
 10
307.799992
 20
379.680006
 30
0.0
 10
408.239990
 20
480.120003
 30
0.0
 10
420.479989
 20
467.880004
 30
0.0
  0
LWPOLYLINE
  5
1f8
100
AcDbEntity
  8
20190719_-_Aalseth_-_Truss
 62
7
100
AcDbPolyline
 90
5
 70
1
 10
408.239990
 20
455.760004
 30
0.0
 10
420.479989
 20
467.880004
 30
0.0
 10
709.439982
 20
178.920011
 30
0.0
 10
709.439982
 20
166.200011
 30
0.0
 10
697.799983
 20
166.200011
 30
0.0
  0
LWPOLYLINE
  5
1f9
100
AcDbEntity
  8
20190719_-_Aalseth_-_Truss
 62
7
100
AcDbPolyline
 90
5
 70
1
 10
120.119997
 20
166.200011
 30
0.0
 10
107.039997
 20
166.200011
 30
0.0
 10
107.039997
 20
178.920011
 30
0.0
 10
388.919990
 20
319.800007
 30
0.0
 10
408.239990
 20
310.200008
 30
0.0
  0
LWPOLYLINE
  5
1fa
100
AcDbEntity
  8
20190719_-_Aalseth_-_Truss
 62
7
100
AcDbPolyline
 90
5
 70
1
 10
294.959993
 20
366.840006
 30
0.0
 10
307.799992
 20
379.680006
 30
0.0
 10
660.719983
 20
203.280010
 30
0.0
 10
697.799983
 20
166.200011
 30
0.0
 10
696.359983
 20
166.200011
 30
0.0
  0
LWPOLYLINE
  5
1fb
100
AcDbEntity
  8
20190719_-_Aalseth_-_Truss
 62
7
100
AcDbPolyline
 90
4
 70
1
 10
427.439989
 20
319.920007
 30
0.0
 10
408.239990
 20
329.520007
 30
0.0
 10
492.359988
 20
371.640006
 30
0.0
 10
505.199987
 20
358.800006
 30
0.0
  0
LWPOLYLINE
  5
1fc
100
AcDbEntity
  8
20190719_-_Aalseth_-_Truss
 62
7
100
AcDbPolyline
 90
2
 70
0
 10
107.039997
 20
140.400012
 30
0.0
 10
384.839990
 20
140.400012
 30
0.0
  0
LWPOLYLINE
  5
1fd
100
AcDbEntity
  8
20190719_-_Aalseth_-_Truss
 62
7
100
AcDbPolyline
 90
5
 70
0
 10
431.639989
 20
140.400012
 30
0.0
 10
709.439982
 20
140.400012
 30
0.0
 10
698.039983
 20
138.480012
 30
0.0
 10
698.039983
 20
142.320012
 30
0.0
 10
709.439982
 20
140.400012
 30
0.0
  0
LWPOLYLINE
  5
1fe
100
AcDbEntity
  8
20190719_-_Aalseth_-_Truss
 62
7
100
AcDbPolyline
 90
3
 70
1
 10
107.039997
 20
140.400012
 30
0.0
 10
118.439997
 20
142.320012
 30
0.0
 10
118.439997
 20
138.480012
 30
0.0
  0
LWPOLYLINE
  5
1ff
100
AcDbEntity
  8
20190719_-_Aalseth_-_Truss
 62
7
100
AcDbPolyline
 90
2
 70
0
 10
107.039997
 20
146.040012
 30
0.0
 10
107.039997
 20
134.880012
 30
0.0
  0
LWPOLYLINE
  5
200
100
AcDbEntity
  8
20190719_-_Aalseth_-_Truss
 62
7
100
AcDbPolyline
 90
2
 70
0
 10
709.439982
 20
146.040012
 30
0.0
 10
709.439982
 20
134.880012
 30
0.0
  0
LWPOLYLINE
  5
201
100
AcDbEntity
  8
20190719_-_Aalseth_-_Truss
 62
7
100
AcDbPolyline
 90
2
 70
0
 10
107.039997
 20
505.800003
 30
0.0
 10
374.639991
 20
505.800003
 30
0.0
  0
LWPOLYLINE
  5
202
100
AcDbEntity
  8
20190719_-_Aalseth_-_Truss
 62
7
100
AcDbPolyline
 90
5
 70
0
 10
430.199989
 20
505.800003
 30
0.0
 10
697.799983
 20
505.800003
 30
0.0
 10
686.399983
 20
504.000003
 30
0.0
 10
686.399983
 20
507.720003
 30
0.0
 10
697.799983
 20
505.800003
 30
0.0
  0
LWPOLYLINE
  5
203
100
AcDbEntity
  8
20190719_-_Aalseth_-_Truss
 62
7
100
AcDbPolyline
 90
3
 70
1
 10
107.039997
 20
505.800003
 30
0.0
 10
118.439997
 20
507.720003
 30
0.0
 10
118.439997
 20
504.000003
 30
0.0
  0
LWPOLYLINE
  5
204
100
AcDbEntity
  8
20190719_-_Aalseth_-_Truss
 62
7
100
AcDbPolyline
 90
2
 70
0
 10
107.039997
 20
511.440003
 30
0.0
 10
107.039997
 20
500.280003
 30
0.0
  0
LWPOLYLINE
  5
205
100
AcDbEntity
  8
20190719_-_Aalseth_-_Truss
 62
7
100
AcDbPolyline
 90
2
 70
0
 10
697.799983
 20
511.440003
 30
0.0
 10
697.799983
 20
500.280003
 30
0.0
  0
LWPOLYLINE
  5
206
100
AcDbEntity
  8
20190719_-_Aalseth_-_Truss
 62
7
100
AcDbPolyline
 90
1
 70
1
 10
697.799983
 20
505.800003
 30
0.0
  0
LWPOLYLINE
  5
207
100
AcDbEntity
  8
20190719_-_Aalseth_-_Truss
 62
7
100
AcDbPolyline
 90
1
 70
1
 10
709.439982
 20
505.800003
 30
0.0
  0
LWPOLYLINE
  5
208
100
AcDbEntity
  8
20190719_-_Aalseth_-_Truss
 62
7
100
AcDbPolyline
 90
2
 70
0
 10
697.799983
 20
511.440003
 30
0.0
 10
697.799983
 20
500.280003
 30
0.0
  0
LWPOLYLINE
  5
209
100
AcDbEntity
  8
20190719_-_Aalseth_-_Truss
 62
7
100
AcDbPolyline
 90
2
 70
0
 10
709.439982
 20
511.440003
 30
0.0
 10
709.439982
 20
500.280003
 30
0.0
  0
LWPOLYLINE
  5
20a
100
AcDbEntity
  8
20190719_-_Aalseth_-_Truss
 62
7
100
AcDbPolyline
 90
2
 70
0
 10
107.039997
 20
531.600002
 30
0.0
 10
173.159996
 20
531.600002
 30
0.0
  0
LWPOLYLINE
  5
20b
100
AcDbEntity
  8
20190719_-_Aalseth_-_Truss
 62
7
100
AcDbPolyline
 90
5
 70
0
 10
228.839994
 20
531.600002
 30
0.0
 10
294.959993
 20
531.600002
 30
0.0
 10
283.559993
 20
529.680002
 30
0.0
 10
283.559993
 20
533.520002
 30
0.0
 10
294.959993
 20
531.600002
 30
0.0
  0
LWPOLYLINE
  5
20c
100
AcDbEntity
  8
20190719_-_Aalseth_-_Truss
 62
7
100
AcDbPolyline
 90
3
 70
1
 10
107.039997
 20
531.600002
 30
0.0
 10
118.439997
 20
533.520002
 30
0.0
 10
118.439997
 20
529.680002
 30
0.0
  0
LWPOLYLINE
  5
20d
100
AcDbEntity
  8
20190719_-_Aalseth_-_Truss
 62
7
100
AcDbPolyline
 90
2
 70
0
 10
107.039997
 20
537.120002
 30
0.0
 10
107.039997
 20
525.960002
 30
0.0
  0
LWPOLYLINE
  5
20e
100
AcDbEntity
  8
20190719_-_Aalseth_-_Truss
 62
7
100
AcDbPolyline
 90
2
 70
0
 10
294.959993
 20
537.120002
 30
0.0
 10
294.959993
 20
525.960002
 30
0.0
  0
LWPOLYLINE
  5
20f
100
AcDbEntity
  8
20190719_-_Aalseth_-_Truss
 62
7
100
AcDbPolyline
 90
1
 70
1
 10
294.959993
 20
531.600002
 30
0.0
  0
LWPOLYLINE
  5
210
100
AcDbEntity
  8
20190719_-_Aalseth_-_Truss
 62
7
100
AcDbPolyline
 90
1
 70
1
 10
307.799992
 20
531.600002
 30
0.0
  0
LWPOLYLINE
  5
211
100
AcDbEntity
  8
20190719_-_Aalseth_-_Truss
 62
7
100
AcDbPolyline
 90
2
 70
0
 10
294.959993
 20
537.120002
 30
0.0
 10
294.959993
 20
525.960002
 30
0.0
  0
LWPOLYLINE
  5
212
100
AcDbEntity
  8
20190719_-_Aalseth_-_Truss
 62
7
100
AcDbPolyline
 90
2
 70
0
 10
307.799992
 20
537.120002
 30
0.0
 10
307.799992
 20
525.960002
 30
0.0
  0
LWPOLYLINE
  5
213
100
AcDbEntity
  8
20190719_-_Aalseth_-_Truss
 62
7
100
AcDbPolyline
 90
2
 70
0
 10
307.799992
 20
531.600002
 30
0.0
 10
334.679992
 20
531.600002
 30
0.0
  0
LWPOLYLINE
  5
214
100
AcDbEntity
  8
20190719_-_Aalseth_-_Truss
 62
7
100
AcDbPolyline
 90
5
 70
0
 10
381.359990
 20
531.600002
 30
0.0
 10
408.239990
 20
531.600002
 30
0.0
 10
396.839990
 20
529.680002
 30
0.0
 10
396.839990
 20
533.520002
 30
0.0
 10
408.239990
 20
531.600002
 30
0.0
  0
LWPOLYLINE
  5
215
100
AcDbEntity
  8
20190719_-_Aalseth_-_Truss
 62
7
100
AcDbPolyline
 90
3
 70
1
 10
307.799992
 20
531.600002
 30
0.0
 10
319.199992
 20
533.520002
 30
0.0
 10
319.199992
 20
529.680002
 30
0.0
  0
LWPOLYLINE
  5
216
100
AcDbEntity
  8
20190719_-_Aalseth_-_Truss
 62
7
100
AcDbPolyline
 90
2
 70
0
 10
307.799992
 20
537.120002
 30
0.0
 10
307.799992
 20
525.960002
 30
0.0
  0
LWPOLYLINE
  5
217
100
AcDbEntity
  8
20190719_-_Aalseth_-_Truss
 62
7
100
AcDbPolyline
 90
2
 70
0
 10
408.239990
 20
537.120002
 30
0.0
 10
408.239990
 20
525.960002
 30
0.0
  0
LWPOLYLINE
  5
218
100
AcDbEntity
  8
20190719_-_Aalseth_-_Truss
 62
7
100
AcDbPolyline
 90
1
 70
1
 10
408.239990
 20
531.600002
 30
0.0
  0
LWPOLYLINE
  5
219
100
AcDbEntity
  8
20190719_-_Aalseth_-_Truss
 62
7
100
AcDbPolyline
 90
1
 70
1
 10
420.479989
 20
531.600002
 30
0.0
  0
LWPOLYLINE
  5
21a
100
AcDbEntity
  8
20190719_-_Aalseth_-_Truss
 62
7
100
AcDbPolyline
 90
2
 70
0
 10
408.239990
 20
537.120002
 30
0.0
 10
408.239990
 20
525.960002
 30
0.0
  0
LWPOLYLINE
  5
21b
100
AcDbEntity
  8
20190719_-_Aalseth_-_Truss
 62
7
100
AcDbPolyline
 90
2
 70
0
 10
420.479989
 20
537.120002
 30
0.0
 10
420.479989
 20
525.960002
 30
0.0
  0
LWPOLYLINE
  5
21c
100
AcDbEntity
  8
20190719_-_Aalseth_-_Truss
 62
7
100
AcDbPolyline
 90
2
 70
0
 10
420.479989
 20
531.600002
 30
0.0
 10
537.119987
 20
531.600002
 30
0.0
  0
LWPOLYLINE
  5
21d
100
AcDbEntity
  8
20190719_-_Aalseth_-_Truss
 62
7
100
AcDbPolyline
 90
5
 70
0
 10
592.679985
 20
531.600002
 30
0.0
 10
709.439982
 20
531.600002
 30
0.0
 10
698.039983
 20
529.680002
 30
0.0
 10
698.039983
 20
533.520002
 30
0.0
 10
709.439982
 20
531.600002
 30
0.0
  0
LWPOLYLINE
  5
21e
100
AcDbEntity
  8
20190719_-_Aalseth_-_Truss
 62
7
100
AcDbPolyline
 90
3
 70
1
 10
420.479989
 20
531.600002
 30
0.0
 10
431.879989
 20
533.520002
 30
0.0
 10
431.879989
 20
529.680002
 30
0.0
  0
LWPOLYLINE
  5
21f
100
AcDbEntity
  8
20190719_-_Aalseth_-_Truss
 62
7
100
AcDbPolyline
 90
2
 70
0
 10
420.479989
 20
537.120002
 30
0.0
 10
420.479989
 20
525.960002
 30
0.0
  0
LWPOLYLINE
  5
220
100
AcDbEntity
  8
20190719_-_Aalseth_-_Truss
 62
7
100
AcDbPolyline
 90
2
 70
0
 10
709.439982
 20
537.120002
 30
0.0
 10
709.439982
 20
525.960002
 30
0.0
  0
LWPOLYLINE
  5
221
100
AcDbEntity
  8
20190719_-_Aalseth_-_Truss
 62
7
100
AcDbPolyline
 90
1
 70
1
 10
89.879998
 20
166.200011
 30
0.0
  0
LWPOLYLINE
  5
222
100
AcDbEntity
  8
20190719_-_Aalseth_-_Truss
 62
7
100
AcDbPolyline
 90
1
 70
1
 10
89.879998
 20
178.920011
 30
0.0
  0
LWPOLYLINE
  5
223
100
AcDbEntity
  8
20190719_-_Aalseth_-_Truss
 62
7
100
AcDbPolyline
 90
2
 70
0
 10
84.239998
 20
166.200011
 30
0.0
 10
95.519998
 20
166.200011
 30
0.0
  0
LWPOLYLINE
  5
224
100
AcDbEntity
  8
20190719_-_Aalseth_-_Truss
 62
7
100
AcDbPolyline
 90
2
 70
0
 10
84.239998
 20
178.920011
 30
0.0
 10
95.519998
 20
178.920011
 30
0.0
  0
LWPOLYLINE
  5
225
100
AcDbEntity
  8
20190719_-_Aalseth_-_Truss
 62
7
100
AcDbPolyline
 90
3
 70
1
 10
216.359995
 20
327.720007
 30
0.0
 10
199.199995
 20
327.720007
 30
0.0
 10
199.199995
 20
310.560008
 30
0.0
  0
LWPOLYLINE
  5
226
100
AcDbEntity
  8
20190719_-_Aalseth_-_Truss
 62
7
100
AcDbPolyline
 90
3
 70
1
 10
262.439993
 20
207.480010
 30
0.0
 10
279.479993
 20
207.480010
 30
0.0
 10
279.479993
 20
216.120010
 30
0.0
  0
LWPOLYLINE
  5
227
100
AcDbEntity
  8
20190719_-_Aalseth_-_Truss
 62
7
100
AcDbPolyline
 90
2
 70
0
 10
726.599982
 20
166.200011
 30
0.0
 10
726.599982
 20
284.760008
 30
0.0
  0
LWPOLYLINE
  5
228
100
AcDbEntity
  8
20190719_-_Aalseth_-_Truss
 62
7
100
AcDbPolyline
 90
5
 70
0
 10
726.599982
 20
349.320007
 30
0.0
 10
726.599982
 20
467.880004
 30
0.0
 10
728.519982
 20
456.480004
 30
0.0
 10
724.679982
 20
456.480004
 30
0.0
 10
726.599982
 20
467.880004
 30
0.0
  0
LWPOLYLINE
  5
229
100
AcDbEntity
  8
20190719_-_Aalseth_-_Truss
 62
7
100
AcDbPolyline
 90
3
 70
1
 10
726.599982
 20
166.200011
 30
0.0
 10
724.679982
 20
177.600011
 30
0.0
 10
728.519982
 20
177.600011
 30
0.0
  0
LWPOLYLINE
  5
22a
100
AcDbEntity
  8
20190719_-_Aalseth_-_Truss
 62
7
100
AcDbPolyline
 90
2
 70
0
 10
720.959982
 20
166.200011
 30
0.0
 10
732.239982
 20
166.200011
 30
0.0
  0
LWPOLYLINE
  5
22b
100
AcDbEntity
  8
20190719_-_Aalseth_-_Truss
 62
7
100
AcDbPolyline
 90
2
 70
0
 10
720.959982
 20
467.880004
 30
0.0
 10
732.239982
 20
467.880004
 30
0.0
  0
LWPOLYLINE
  5
22c
100
AcDbEntity
  8
20190719_-_Aalseth_-_Truss
 62
7
100
AcDbPolyline
 90
2
 70
0
 10
373.919991
 20
166.200011
 30
0.0
 10
373.919991
 20
214.800010
 30
0.0
  0
LWPOLYLINE
  5
22d
100
AcDbEntity
  8
20190719_-_Aalseth_-_Truss
 62
7
100
AcDbPolyline
 90
5
 70
0
 10
373.919991
 20
261.480009
 30
0.0
 10
373.919991
 20
310.200008
 30
0.0
 10
375.839991
 20
298.800008
 30
0.0
 10
371.999991
 20
298.800008
 30
0.0
 10
373.919991
 20
310.200008
 30
0.0
  0
LWPOLYLINE
  5
22e
100
AcDbEntity
  8
20190719_-_Aalseth_-_Truss
 62
7
100
AcDbPolyline
 90
3
 70
1
 10
373.919991
 20
166.200011
 30
0.0
 10
371.999991
 20
177.600011
 30
0.0
 10
375.839991
 20
177.600011
 30
0.0
  0
LWPOLYLINE
  5
22f
100
AcDbEntity
  8
20190719_-_Aalseth_-_Truss
 62
7
100
AcDbPolyline
 90
2
 70
0
 10
368.399991
 20
166.200011
 30
0.0
 10
379.559991
 20
166.200011
 30
0.0
  0
LWPOLYLINE
  5
230
100
AcDbEntity
  8
20190719_-_Aalseth_-_Truss
 62
7
100
AcDbPolyline
 90
2
 70
0
 10
368.399991
 20
310.200008
 30
0.0
 10
379.559991
 20
310.200008
 30
0.0
  0
LWPOLYLINE
  5
231
100
AcDbEntity
  8
20190719_-_Aalseth_-_Truss
 62
7
100
AcDbPolyline
 90
2
 70
0
 10
72.719998
 20
166.200011
 30
0.0
 10
72.719998
 20
286.440008
 30
0.0
  0
LWPOLYLINE
  5
232
100
AcDbEntity
  8
20190719_-_Aalseth_-_Truss
 62
7
100
AcDbPolyline
 90
5
 70
0
 10
72.719998
 20
359.760006
 30
0.0
 10
72.719998
 20
480.120003
 30
0.0
 10
74.639998
 20
468.720004
 30
0.0
 10
70.919998
 20
468.720004
 30
0.0
 10
72.719998
 20
480.120003
 30
0.0
  0
LWPOLYLINE
  5
233
100
AcDbEntity
  8
20190719_-_Aalseth_-_Truss
 62
7
100
AcDbPolyline
 90
3
 70
1
 10
72.719998
 20
166.200011
 30
0.0
 10
70.919998
 20
177.600011
 30
0.0
 10
74.639998
 20
177.600011
 30
0.0
  0
LWPOLYLINE
  5
234
100
AcDbEntity
  8
20190719_-_Aalseth_-_Truss
 62
7
100
AcDbPolyline
 90
2
 70
0
 10
67.199998
 20
166.200011
 30
0.0
 10
78.359998
 20
166.200011
 30
0.0
  0
LWPOLYLINE
  5
235
100
AcDbEntity
  8
20190719_-_Aalseth_-_Truss
 62
7
100
AcDbPolyline
 90
2
 70
0
 10
67.199998
 20
480.120003
 30
0.0
 10
78.359998
 20
480.120003
 30
0.0
  0
LWPOLYLINE
  5
236
100
AcDbEntity
  8
20190719_-_Aalseth_-_Truss
 62
7
100
AcDbPolyline
 90
2
 70
0
 10
708.839982
 20
166.800011
 30
0.0
 10
710.039982
 20
165.600011
 30
0.0
  0
LWPOLYLINE
  5
237
100
AcDbEntity
  8
20190719_-_Aalseth_-_Truss
 62
7
100
AcDbPolyline
 90
2
 70
0
 10
708.839982
 20
166.680011
 30
0.0
 10
710.039982
 20
165.480011
 30
0.0
  0
LWPOLYLINE
  5
238
100
AcDbEntity
  8
20190719_-_Aalseth_-_Truss
 62
7
100
AcDbPolyline
 90
2
 70
0
 10
708.839982
 20
166.920011
 30
0.0
 10
710.039982
 20
165.720011
 30
0.0
  0
LWPOLYLINE
  5
239
100
AcDbEntity
  8
20190719_-_Aalseth_-_Truss
 62
7
100
AcDbPolyline
 90
2
 70
0
 10
708.839982
 20
165.600011
 30
0.0
 10
710.039982
 20
166.800011
 30
0.0
  0
LWPOLYLINE
  5
23a
100
AcDbEntity
  8
20190719_-_Aalseth_-_Truss
 62
7
100
AcDbPolyline
 90
2
 70
0
 10
708.839982
 20
165.480011
 30
0.0
 10
710.039982
 20
166.680011
 30
0.0
  0
LWPOLYLINE
  5
23b
100
AcDbEntity
  8
20190719_-_Aalseth_-_Truss
 62
7
100
AcDbPolyline
 90
2
 70
0
 10
708.839982
 20
165.720011
 30
0.0
 10
710.039982
 20
166.920011
 30
0.0
  0
ENDSEC
  0
SECTION
  2
OBJECTS
  0
DICTIONARY
  5
C
330
0
100
AcDbDictionary
  3
ACAD_GROUP
350
D
  3
ACAD_MLINESTYLE
350
17
  0
DICTIONARY
  5
D
330
C
100
AcDbDictionary
  0
DICTIONARY
  5
1A
330
C
100
AcDbDictionary
  0
DICTIONARY
  5
17
330
C
100
AcDbDictionary
  3
STANDARD
350
18
  0
DICTIONARY
  5
19
330
C
100
AcDbDictionary
  0
ENDSEC
  0
EOF
